<svg width="106" height="51" viewBox="0 0 106 51" fill="none" xmlns="http://www.w3.org/2000/svg">
<path d="M11.4473 40.5664C11.4473 40.6445 11.4434 40.7031 11.4355 40.7422C11.3965 40.7578 11.3652 40.7812 11.3418 40.8125C11.3184 40.8359 11.2793 40.8438 11.2246 40.8359C11.209 40.9531 11.1699 41.0508 11.1074 41.1289C11.0449 41.207 10.9785 41.2773 10.9082 41.3398C10.8457 41.4102 10.7832 41.4805 10.7207 41.5508C10.6582 41.6289 10.6191 41.7266 10.6035 41.8438C10.4863 41.9062 10.3691 41.9883 10.252 42.0898C10.1426 42.1992 10.0449 42.2734 9.95898 42.3125C9.89648 42.3438 9.83008 42.3672 9.75977 42.3828C9.68945 42.4062 9.61914 42.4336 9.54883 42.4648C9.32227 42.5664 9.08789 42.6719 8.8457 42.7812C8.61133 42.8906 8.36523 42.9453 8.10742 42.9453H8.02539C7.99414 42.9766 7.95508 42.9961 7.9082 43.0039C7.86133 43.0195 7.81445 43.0312 7.76758 43.0391C7.7207 43.0469 7.67383 43.0586 7.62695 43.0742C7.58008 43.0898 7.54492 43.1133 7.52148 43.1445C7.43555 43.1133 7.3418 43.0977 7.24023 43.0977H7.1582C7.02539 43.1289 6.90039 43.1523 6.7832 43.168C6.66602 43.1836 6.54102 43.1914 6.4082 43.1914C6.17383 43.1914 5.93945 43.1758 5.70508 43.1445C5.4707 43.1133 5.23633 43.0859 5.00195 43.0625C4.85352 42.9453 4.73242 42.7969 4.63867 42.6172C4.54492 42.4453 4.49805 42.2617 4.49805 42.0664C4.49805 41.918 4.5293 41.7773 4.5918 41.6445C4.6543 41.5195 4.73633 41.4062 4.83789 41.3047H4.87305C4.94336 41.3047 5.01367 41.2891 5.08398 41.2578C5.16211 41.2266 5.23633 41.2109 5.30664 41.2109C5.38477 41.2109 5.44727 41.2422 5.49414 41.3047C5.54883 41.3672 5.58789 41.4414 5.61133 41.5273C5.64258 41.6133 5.66211 41.6992 5.66992 41.7852C5.67773 41.8789 5.68164 41.9531 5.68164 42.0078C5.76758 42.0469 5.85742 42.0703 5.95117 42.0781C6.05273 42.0859 6.1543 42.0898 6.25586 42.0898C6.35742 42.0898 6.4707 42.082 6.5957 42.0664C6.7207 42.0586 6.8457 42.0391 6.9707 42.0078C7.10352 41.9844 7.22852 41.9531 7.3457 41.9141C7.4707 41.875 7.57617 41.8242 7.66211 41.7617C8.0918 41.7227 8.4707 41.625 8.79883 41.4688C9.12695 41.3125 9.47461 41.1289 9.8418 40.918C9.85742 40.832 9.88867 40.7656 9.93555 40.7188C9.99023 40.6641 10.0176 40.5859 10.0176 40.4844C10.0176 40.4688 10.0137 40.4531 10.0059 40.4375C10.0059 40.4141 10.0059 40.3945 10.0059 40.3789C9.84961 40.1836 9.68555 40.0117 9.51367 39.8633C9.34961 39.7148 9.13477 39.6172 8.86914 39.5703C8.83789 39.5 8.78711 39.4492 8.7168 39.418C8.64648 39.3789 8.57227 39.3438 8.49414 39.3125C8.41602 39.2812 8.3418 39.25 8.27148 39.2188C8.20117 39.1797 8.15039 39.1172 8.11914 39.0312C7.9082 38.9922 7.68945 38.9453 7.46289 38.8906C7.24414 38.8281 7.05664 38.7188 6.90039 38.5625C6.77539 38.5547 6.6543 38.5312 6.53711 38.4922C6.42773 38.4453 6.31836 38.4023 6.20898 38.3633C6.09961 38.3164 5.98633 38.2773 5.86914 38.2461C5.75195 38.207 5.63086 38.1875 5.50586 38.1875C5.47461 38.1328 5.43164 38.0898 5.37695 38.0586C5.32227 38.0273 5.25977 38 5.18945 37.9766C5.12695 37.9531 5.06445 37.9297 5.00195 37.9062C4.94727 37.875 4.9043 37.832 4.87305 37.7773C4.8418 37.7852 4.81836 37.8008 4.80273 37.8242C4.78711 37.8477 4.75977 37.8594 4.7207 37.8594H4.67383C4.6582 37.8125 4.62695 37.7812 4.58008 37.7656C4.5332 37.7422 4.50586 37.6992 4.49805 37.6367C4.35742 37.6289 4.22852 37.6016 4.11133 37.5547C4.00195 37.5078 3.89648 37.457 3.79492 37.4023C3.70117 37.3398 3.60352 37.2812 3.50195 37.2266C3.40039 37.1719 3.28711 37.1289 3.16211 37.0977C3.08398 37.0352 3.00977 36.9688 2.93945 36.8984C2.87695 36.8203 2.79492 36.7812 2.69336 36.7812C2.66992 36.7812 2.62695 36.7891 2.56445 36.8047C2.54883 36.6641 2.49023 36.5664 2.38867 36.5117C2.28711 36.4492 2.17773 36.3945 2.06055 36.3477C1.98242 36.1445 1.87695 35.9648 1.74414 35.8086C1.61133 35.6523 1.4668 35.5078 1.31055 35.375C1.32617 35.3281 1.33398 35.293 1.33398 35.2695C1.33398 35.1914 1.31445 35.125 1.27539 35.0703C1.23633 35.0078 1.19336 34.957 1.14648 34.918C1.03711 34.5664 0.982422 34.2227 0.982422 33.8867C0.982422 33.418 1.08789 32.9844 1.29883 32.5859C1.50195 32.1797 1.82617 31.875 2.27148 31.6719C2.2793 31.6094 2.29883 31.5547 2.33008 31.5078C2.36914 31.4609 2.39258 31.4062 2.40039 31.3438C2.4707 31.3438 2.52539 31.3281 2.56445 31.2969C2.60352 31.2656 2.63867 31.2344 2.66992 31.2031C2.70898 31.1641 2.74805 31.1289 2.78711 31.0977C2.82617 31.0664 2.87695 31.0469 2.93945 31.0391C3.23633 30.7812 3.55273 30.5742 3.88867 30.418C4.22461 30.2539 4.56836 30.0859 4.91992 29.9141C4.99023 29.8828 5.04883 29.8242 5.0957 29.7383H5.16602C5.24414 29.7383 5.30273 29.7227 5.3418 29.6914C5.38867 29.6523 5.45508 29.6406 5.54102 29.6562C5.57227 29.6094 5.61133 29.5781 5.6582 29.5625C5.71289 29.5469 5.76367 29.5352 5.81055 29.5273C5.86523 29.5117 5.91602 29.4922 5.96289 29.4688C6.00977 29.4453 6.04102 29.4102 6.05664 29.3633H6.13867C6.27148 29.3633 6.40039 29.3438 6.52539 29.3047C6.65039 29.2578 6.77539 29.207 6.90039 29.1523H6.98242C7.13867 29.1523 7.2832 29.125 7.41602 29.0703C7.55664 29.0078 7.70508 28.9648 7.86133 28.9414C7.92383 28.9258 7.98633 28.9219 8.04883 28.9297C8.11133 28.9375 8.17383 28.9414 8.23633 28.9414C8.27539 28.9414 8.32227 28.9375 8.37695 28.9297C8.43164 28.9219 8.4707 28.8984 8.49414 28.8594H8.51758C8.56445 28.8594 8.5918 28.875 8.59961 28.9062C8.60742 28.9375 8.63086 28.9531 8.66992 28.9531C8.72461 28.9531 8.7793 28.9453 8.83398 28.9297C8.88867 28.9141 8.94336 28.9062 8.99805 28.9062C9.23242 28.9062 9.46289 28.9297 9.68945 28.9766C9.92383 29.0234 10.1543 29.0664 10.3809 29.1055C10.3965 29.1992 10.4355 29.2656 10.498 29.3047C10.5684 29.3438 10.6426 29.3789 10.7207 29.4102V29.457C10.7207 29.5195 10.7363 29.5703 10.7676 29.6094C10.7363 29.7188 10.6816 29.8008 10.6035 29.8555C10.5254 29.9102 10.4395 29.957 10.3457 29.9961C10.3848 30.0273 10.4082 30.0703 10.416 30.125C10.4238 30.1797 10.4277 30.2305 10.4277 30.2773V30.418L10.3691 30.4062C10.2441 30.4062 10.1816 30.4648 10.1816 30.582C10.0801 30.5195 9.9668 30.4805 9.8418 30.4648C9.72461 30.4492 9.60742 30.4414 9.49023 30.4414C9.33398 30.4414 9.16992 30.4492 8.99805 30.4648C8.82617 30.4727 8.6582 30.4688 8.49414 30.4531C8.43164 30.5312 8.35352 30.5898 8.25977 30.6289C8.16602 30.6602 8.07227 30.6758 7.97852 30.6758C7.87695 30.6758 7.7793 30.6562 7.68555 30.6172C7.5918 30.5703 7.52539 30.5039 7.48633 30.418C7.44727 30.4023 7.41211 30.3945 7.38086 30.3945H7.27539C7.15039 30.3945 7.02539 30.4102 6.90039 30.4414C6.7832 30.4648 6.66211 30.4961 6.53711 30.5352C6.41211 30.5664 6.28711 30.6016 6.16211 30.6406C6.04492 30.6719 5.92383 30.6914 5.79883 30.6992C5.75195 30.7617 5.68945 30.8047 5.61133 30.8281C5.5332 30.8516 5.4707 30.8945 5.42383 30.957C5.25977 30.9883 5.11133 31.043 4.97852 31.1211C4.8457 31.1914 4.7168 31.2695 4.5918 31.3555L4.22852 31.6016C4.11133 31.6797 3.97852 31.7461 3.83008 31.8008C3.7207 31.918 3.61914 32.0117 3.52539 32.082C3.43164 32.1523 3.31055 32.2148 3.16211 32.2695C3.06836 32.3008 3.01367 32.3477 2.99805 32.4102C2.99023 32.4727 2.95898 32.5352 2.9043 32.5977C2.85742 32.6523 2.79883 32.6953 2.72852 32.7266C2.66602 32.75 2.61133 32.793 2.56445 32.8555C2.52539 32.9102 2.49414 32.9766 2.4707 33.0547C2.45508 33.125 2.43555 33.1953 2.41211 33.2656C2.38867 33.3359 2.36133 33.4062 2.33008 33.4766C2.29883 33.5391 2.25195 33.5938 2.18945 33.6406C2.18945 33.6719 2.18555 33.7031 2.17773 33.7344C2.17773 33.7656 2.17773 33.793 2.17773 33.8164C2.17773 33.9258 2.18945 34.0391 2.21289 34.1562C2.24414 34.2656 2.26367 34.375 2.27148 34.4844C2.42773 34.7578 2.61133 35.0078 2.82227 35.2344C3.0332 35.4531 3.25977 35.6562 3.50195 35.8438C3.74414 36.0312 3.99414 36.207 4.25195 36.3711C4.51758 36.5352 4.7793 36.6953 5.03711 36.8516C5.13086 36.8438 5.2168 36.8555 5.29492 36.8867C5.37305 36.9102 5.45508 36.9258 5.54102 36.9336C5.63477 37.0039 5.74414 37.0586 5.86914 37.0977L6.24414 37.2148C6.36914 37.2539 6.49023 37.3008 6.60742 37.3555C6.72461 37.4023 6.82227 37.4688 6.90039 37.5547C6.93945 37.5625 6.97461 37.5742 7.00586 37.5898C7.03711 37.5977 7.07227 37.6016 7.11133 37.6016C7.1582 37.6016 7.18555 37.5859 7.19336 37.5547C7.54492 37.6875 7.88867 37.8359 8.22461 38C8.56055 38.1562 8.91602 38.2773 9.29102 38.3633C9.43945 38.4883 9.60352 38.5977 9.7832 38.6914C9.96289 38.7852 10.1426 38.8828 10.3223 38.9844C10.502 39.0781 10.6738 39.1836 10.8379 39.3008C11.002 39.4102 11.1465 39.543 11.2715 39.6992C11.2871 39.8477 11.3184 39.9922 11.3652 40.1328C11.4199 40.2656 11.4473 40.4102 11.4473 40.5664ZM24.8301 28.1914C24.8301 28.2617 24.8262 28.332 24.8184 28.4023C24.8184 28.4727 24.8145 28.5391 24.8066 28.6016C24.7832 28.6406 24.7363 28.6562 24.666 28.6484C24.6035 28.6406 24.5527 28.6367 24.5137 28.6367C24.4746 28.6367 24.4395 28.6445 24.4082 28.6602C24.3848 28.668 24.373 28.6914 24.373 28.7305C24.373 28.7773 24.377 28.8086 24.3848 28.8242C24.3223 28.8164 24.2559 28.8086 24.1855 28.8008C24.1152 28.793 24.0527 28.7695 23.998 28.7305C23.8887 28.7539 23.7832 28.7852 23.6816 28.8242C23.5879 28.8633 23.4941 28.9062 23.4004 28.9531C23.3066 29 23.209 29.043 23.1074 29.082C23.0059 29.1211 22.9004 29.1445 22.791 29.1523C22.7207 29.2305 22.6309 29.2891 22.5215 29.3281C22.4121 29.3672 22.2988 29.4023 22.1816 29.4336C22.0645 29.4648 21.9551 29.5039 21.8535 29.5508C21.752 29.5898 21.6699 29.6523 21.6074 29.7383C21.4355 29.7539 21.2715 29.7969 21.1152 29.8672C20.959 29.9375 20.8027 30.0117 20.6465 30.0898C20.498 30.168 20.3457 30.2422 20.1895 30.3125C20.0332 30.3828 19.8652 30.4297 19.6855 30.4531C19.6387 30.5 19.5801 30.5391 19.5098 30.5703C19.4473 30.6016 19.3809 30.6328 19.3105 30.6641C19.2402 30.6875 19.1738 30.7148 19.1113 30.7461C19.0488 30.7773 18.998 30.8203 18.959 30.875H18.9355C18.9043 30.875 18.8809 30.8672 18.8652 30.8516C18.8496 30.8359 18.8262 30.8281 18.7949 30.8281C18.7715 30.8281 18.7559 30.832 18.748 30.8398C18.5605 30.9258 18.373 31.0156 18.1855 31.1094C17.998 31.2031 17.8027 31.293 17.5996 31.3789C17.2012 31.543 16.7988 31.7031 16.3926 31.8594C15.9863 32.0156 15.5957 32.207 15.2207 32.4336C15.1348 32.7461 15.0645 33.0664 15.0098 33.3945C14.9551 33.7148 14.8574 34.0234 14.7168 34.3203V34.8711C14.6387 35.0195 14.5879 35.1836 14.5645 35.3633C14.541 35.543 14.5293 35.7148 14.5293 35.8789C14.5293 35.9414 14.5293 36 14.5293 36.0547C14.5371 36.1016 14.541 36.1523 14.541 36.207C14.7676 36.1445 14.9863 36.0742 15.1973 35.9961C15.416 35.918 15.6348 35.8477 15.8535 35.7852C15.9629 35.7461 16.0723 35.7188 16.1816 35.7031C16.2988 35.6875 16.4121 35.6602 16.5215 35.6211C16.6074 35.5977 16.6973 35.5664 16.791 35.5273C16.8848 35.4805 16.9746 35.4375 17.0605 35.3984C17.2949 35.2969 17.5332 35.207 17.7754 35.1289C18.0254 35.0508 18.2793 34.9922 18.5371 34.9531C18.6152 34.8906 18.7012 34.832 18.7949 34.7773C18.8887 34.7227 18.9824 34.6953 19.0762 34.6953C19.1465 34.6953 19.2051 34.707 19.252 34.7305C19.3848 34.6523 19.541 34.582 19.7207 34.5195C19.9004 34.457 20.0684 34.4336 20.2246 34.4492C20.2637 34.3945 20.3105 34.3594 20.3652 34.3438C20.4199 34.3203 20.4785 34.3086 20.541 34.3086C20.5723 34.3086 20.5996 34.3125 20.623 34.3203C20.6543 34.3203 20.6895 34.3203 20.7285 34.3203C20.8066 34.2656 20.8926 34.2266 20.9863 34.2031C21.0801 34.1797 21.1738 34.1602 21.2676 34.1445C21.3613 34.1289 21.4512 34.1094 21.5371 34.0859C21.6309 34.0547 21.7129 34.0078 21.7832 33.9453C21.8926 33.9531 21.9785 33.9844 22.041 34.0391C22.1113 34.0938 22.1699 34.1602 22.2168 34.2383C22.2637 34.3164 22.3027 34.3984 22.334 34.4844C22.3652 34.5703 22.4043 34.6523 22.4512 34.7305C22.4355 34.793 22.4121 34.8438 22.3809 34.8828C22.3496 34.9141 22.3145 34.9453 22.2754 34.9766C22.2363 35.0078 22.2012 35.0391 22.1699 35.0703C22.1387 35.1016 22.1191 35.1445 22.1113 35.1992C21.8379 35.1992 21.5723 35.2383 21.3145 35.3164C21.0645 35.3945 20.8145 35.4844 20.5645 35.5859C20.3223 35.6875 20.0723 35.7852 19.8145 35.8789C19.5645 35.9648 19.3066 36.0195 19.041 36.043C19.002 36.082 18.9512 36.1133 18.8887 36.1367L18.7129 36.1953C18.6582 36.2109 18.6074 36.2344 18.5605 36.2656C18.5137 36.2891 18.4785 36.3281 18.4551 36.3828C18.4082 36.3594 18.3574 36.3477 18.3027 36.3477C18.1699 36.3477 18.041 36.3828 17.916 36.4531C17.791 36.5234 17.6504 36.5586 17.4941 36.5586C17.4316 36.5586 17.3887 36.5547 17.3652 36.5469C17.3262 36.6172 17.2676 36.668 17.1895 36.6992C17.1191 36.7305 17.041 36.7578 16.9551 36.7812C16.877 36.7969 16.7988 36.8203 16.7207 36.8516C16.6504 36.8828 16.5957 36.9375 16.5566 37.0156C16.5332 37.0078 16.5059 37.0039 16.4746 37.0039H16.4043C16.2793 37.0039 16.1348 37.0273 15.9707 37.0742C15.8145 37.1133 15.7012 37.1914 15.6309 37.3086C15.5684 37.293 15.5137 37.2852 15.4668 37.2852C15.3574 37.2852 15.2598 37.3086 15.1738 37.3555C15.0879 37.3945 15.002 37.4414 14.916 37.4961L14.6582 37.6602C14.5723 37.7148 14.4785 37.7539 14.377 37.7773C14.1738 38.0664 14.0332 38.3984 13.9551 38.7734C13.877 39.1484 13.8184 39.5391 13.7793 39.9453C13.748 40.3516 13.7168 40.7539 13.6855 41.1523C13.6543 41.5586 13.5918 41.9297 13.498 42.2656C13.5449 42.3906 13.5801 42.5234 13.6035 42.6641C13.627 42.8047 13.6465 42.9453 13.6621 43.0859C13.6777 43.2344 13.6934 43.3828 13.709 43.5312C13.7246 43.6797 13.752 43.8203 13.791 43.9531C13.8301 44.1172 13.9043 44.2617 14.0137 44.3867C14.1309 44.5195 14.2129 44.668 14.2598 44.832C14.2988 44.8398 14.3379 44.8438 14.377 44.8438C14.4238 44.8516 14.4707 44.8555 14.5176 44.8555C14.7988 44.8555 15.0449 44.8008 15.2559 44.6914C15.4746 44.582 15.6777 44.4453 15.8652 44.2812C16.0527 44.125 16.2324 43.9531 16.4043 43.7656C16.584 43.5859 16.7754 43.4258 16.9785 43.2852H17.2012C17.2559 43.2227 17.3027 43.1562 17.3418 43.0859C17.3809 43.0156 17.4238 42.9492 17.4707 42.8867C17.5176 42.8242 17.5723 42.7695 17.6348 42.7227C17.6973 42.6836 17.7754 42.6562 17.8691 42.6406C17.8926 42.5234 17.9473 42.4336 18.0332 42.3711C18.1191 42.3086 18.1777 42.2148 18.209 42.0898C18.2246 42.0977 18.2441 42.1016 18.2676 42.1016C18.3301 42.1016 18.377 42.0859 18.4082 42.0547L18.584 41.8906C18.6465 41.8281 18.7129 41.7656 18.7832 41.7031C18.8613 41.6484 18.9355 41.5938 19.0059 41.5391C19.2324 41.375 19.459 41.2109 19.6855 41.0469C19.9121 40.8906 20.1191 40.707 20.3066 40.4961C20.3145 40.5039 20.3262 40.5078 20.3418 40.5078C20.4043 40.5078 20.4473 40.4883 20.4707 40.4492C20.4941 40.4102 20.5488 40.3984 20.6348 40.4141C20.6816 40.3438 20.7246 40.2734 20.7637 40.2031C20.8027 40.125 20.834 40.043 20.8574 39.957L21.2324 40.0039C21.3574 40.0195 21.4824 40.0273 21.6074 40.0273C21.6465 40.0273 21.6816 40.0273 21.7129 40.0273C21.752 40.0195 21.7871 40.0078 21.8184 39.9922C21.9121 40.1406 21.9629 40.3008 21.9707 40.4727C21.9785 40.6367 21.998 40.8008 22.0293 40.9648C22.0137 40.9648 22.002 40.9648 21.9941 40.9648C21.9941 40.957 21.9863 40.9531 21.9707 40.9531C21.9316 40.9531 21.8926 40.9688 21.8535 41C21.8223 41.0234 21.7871 41.0547 21.748 41.0938L21.6309 41.2109C21.5918 41.25 21.5566 41.2812 21.5254 41.3047C21.4395 41.3594 21.3496 41.4062 21.2559 41.4453C21.1621 41.4922 21.0723 41.5391 20.9863 41.5859C20.9004 41.6328 20.8184 41.6875 20.7402 41.75C20.6621 41.8203 20.5996 41.9062 20.5527 42.0078C20.3965 42.0703 20.2441 42.1367 20.0957 42.207C19.9551 42.2773 19.8184 42.3516 19.6855 42.4297C19.6465 42.4688 19.6113 42.5078 19.5801 42.5469C19.5488 42.5859 19.5254 42.6289 19.5098 42.6758C19.2988 42.7461 19.123 42.8516 18.9824 42.9922C18.8496 43.1328 18.7129 43.2852 18.5723 43.4492L18.5605 43.4375C18.5059 43.4375 18.4707 43.457 18.4551 43.4961C18.4473 43.5352 18.4043 43.5469 18.3262 43.5312C18.1777 43.6953 18.0215 43.8477 17.8574 43.9883C17.6934 44.1289 17.5254 44.2695 17.3535 44.4102C17.1816 44.5508 17.0098 44.6914 16.8379 44.832C16.666 44.9805 16.5059 45.1367 16.3574 45.3008C16.2559 45.332 16.1582 45.3711 16.0645 45.418C15.9707 45.4648 15.9004 45.5352 15.8535 45.6289H15.8184C15.7324 45.6289 15.6699 45.6484 15.6309 45.6875C15.5996 45.7266 15.5605 45.7773 15.5137 45.8398C15.3496 45.8789 15.1816 45.9219 15.0098 45.9688C14.8379 46.0156 14.6621 46.0391 14.4824 46.0391C14.3574 46.0391 14.2363 46.0156 14.1191 45.9688C14.0098 45.9219 13.9004 45.8594 13.791 45.7812C13.6895 45.7109 13.5918 45.6328 13.498 45.5469C13.4121 45.4609 13.3301 45.3789 13.252 45.3008C13.2051 45.1445 13.1426 44.9805 13.0645 44.8086C12.9941 44.6445 12.959 44.4844 12.959 44.3281C12.959 44.2891 12.9629 44.25 12.9707 44.2109C12.9863 44.1797 12.9941 44.1484 12.9941 44.1172C12.9941 44.0625 12.9746 44.0391 12.9355 44.0469C12.9043 44.0547 12.8809 44.0352 12.8652 43.9883C12.8496 43.9102 12.8379 43.8203 12.8301 43.7188C12.8301 43.625 12.8223 43.5352 12.8066 43.4492C12.7832 43.2695 12.752 43.0859 12.7129 42.8984C12.6816 42.7109 12.6465 42.5273 12.6074 42.3477C12.6387 42.332 12.6621 42.3047 12.6777 42.2656C12.7012 42.2344 12.7246 42.2031 12.748 42.1719C12.7246 42.1094 12.7012 42.0391 12.6777 41.9609C12.6621 41.8906 12.6543 41.8164 12.6543 41.7383C12.6543 41.582 12.7129 41.4648 12.8301 41.3867C12.8301 41.332 12.8145 41.2891 12.7832 41.2578C12.7598 41.2344 12.748 41.1914 12.748 41.1289C12.748 41.1133 12.752 41.0703 12.7598 41C12.7754 40.9219 12.791 40.8359 12.8066 40.7422C12.8301 40.6484 12.8496 40.5586 12.8652 40.4727C12.8809 40.3867 12.8926 40.3281 12.9004 40.2969C12.9551 39.9375 13.002 39.5859 13.041 39.2422C13.0801 38.8906 13.1348 38.5391 13.2051 38.1875C13.127 38.125 13.0254 38.0781 12.9004 38.0469C12.7832 38.0078 12.7012 37.957 12.6543 37.8945C12.6152 37.8398 12.584 37.7695 12.5605 37.6836C12.5371 37.5977 12.5254 37.5234 12.5254 37.4609C12.5254 37.2344 12.6152 37.0547 12.7949 36.9219C12.9746 36.7812 13.166 36.6992 13.3691 36.6758C13.4707 36.4023 13.5449 36.125 13.5918 35.8438C13.6465 35.5547 13.6895 35.2656 13.7207 34.9766L13.8145 34.0977C13.8457 33.8008 13.8926 33.5078 13.9551 33.2188H13.8848C13.7285 33.2188 13.5762 33.2422 13.4277 33.2891C13.2793 33.3359 13.127 33.3594 12.9707 33.3594H12.9473C12.7207 33.1797 12.6074 32.9648 12.6074 32.7148C12.6074 32.5664 12.6387 32.418 12.7012 32.2695C12.8262 32.2227 12.9395 32.1602 13.041 32.082C13.1426 32.0039 13.2441 31.9258 13.3457 31.8477C13.4551 31.7617 13.5645 31.6875 13.6738 31.625C13.7832 31.5625 13.9043 31.5234 14.0371 31.5078C14.0527 31.2812 14.0918 31.0547 14.1543 30.8281C14.2168 30.6016 14.248 30.375 14.248 30.1484C14.248 30.1016 14.2441 30.0547 14.2363 30.0078C14.2363 29.9609 14.2285 29.9141 14.2129 29.8672C14.2676 29.7969 14.3027 29.7227 14.3184 29.6445C14.3418 29.5664 14.3535 29.4844 14.3535 29.3984C14.3535 29.3047 14.3457 29.2148 14.3301 29.1289C14.3223 29.0352 14.3105 28.9453 14.2949 28.8594C14.3652 28.8281 14.4199 28.7969 14.459 28.7656C14.498 28.7266 14.5332 28.6914 14.5645 28.6602C14.6035 28.6289 14.6504 28.6016 14.7051 28.5781C14.7598 28.5547 14.8379 28.543 14.9395 28.543C15.0879 28.543 15.2129 28.5742 15.3145 28.6367C15.4238 28.6914 15.5176 28.7656 15.5957 28.8594C15.6738 28.9531 15.7402 29.0586 15.7949 29.1758C15.8574 29.293 15.916 29.4102 15.9707 29.5273C15.9551 29.6133 15.9199 29.6758 15.8652 29.7148C15.8105 29.7539 15.7637 29.8047 15.7246 29.8672C15.7402 29.9922 15.7559 30.1133 15.7715 30.2305C15.7871 30.3398 15.7871 30.457 15.7715 30.582C15.8496 30.6211 15.9238 30.6406 15.9941 30.6406C16.1113 30.6406 16.2168 30.6094 16.3105 30.5469C16.4121 30.4844 16.4824 30.3984 16.5215 30.2891H16.5449C16.5684 30.2891 16.5879 30.2969 16.6035 30.3125C16.627 30.3281 16.6543 30.3359 16.6855 30.3359H16.7324C16.8184 30.2578 16.9121 30.1992 17.0137 30.1602C17.1152 30.1133 17.2207 30.0703 17.3301 30.0312C17.4395 29.9922 17.5449 29.9531 17.6465 29.9141C17.7559 29.8672 17.8574 29.8086 17.9512 29.7383C17.998 29.7617 18.0488 29.7734 18.1035 29.7734C18.1816 29.7734 18.2559 29.7578 18.3262 29.7266C18.4043 29.6953 18.4785 29.6641 18.5488 29.6328C18.6191 29.5938 18.6934 29.5586 18.7715 29.5273C18.8574 29.4961 18.9473 29.4805 19.041 29.4805C19.0566 29.4805 19.0762 29.4844 19.0996 29.4922C19.123 29.4922 19.1426 29.4922 19.1582 29.4922C19.2129 29.4922 19.2441 29.4727 19.252 29.4336C19.2598 29.3945 19.2598 29.3594 19.252 29.3281C19.502 29.2656 19.7168 29.1953 19.8965 29.1172C20.084 29.0312 20.291 28.9336 20.5176 28.8242C20.5176 28.8164 20.5254 28.8125 20.541 28.8125C20.5645 28.8125 20.5801 28.8242 20.5879 28.8477C20.5957 28.8711 20.5996 28.8906 20.5996 28.9062C20.6465 28.8828 20.6699 28.8438 20.6699 28.7891C20.6777 28.7344 20.6973 28.6875 20.7285 28.6484C20.7598 28.6562 20.8027 28.6602 20.8574 28.6602C20.9277 28.6602 20.998 28.6445 21.0684 28.6133C21.1465 28.582 21.2207 28.5469 21.291 28.5078C21.3613 28.4688 21.4316 28.4336 21.502 28.4023C21.5723 28.3711 21.6426 28.3555 21.7129 28.3555C21.7754 28.3555 21.8262 28.3711 21.8652 28.4023C21.9121 28.3789 21.959 28.3477 22.0059 28.3086C22.0527 28.2617 22.1035 28.2383 22.1582 28.2383C22.1738 28.2383 22.1855 28.2422 22.1934 28.25C22.209 28.2578 22.2246 28.2656 22.2402 28.2734C22.2793 28.2344 22.3145 28.2031 22.3457 28.1797C22.3848 28.1562 22.4043 28.1172 22.4043 28.0625C22.6934 28.0312 22.959 27.9688 23.2012 27.875C23.4512 27.7734 23.6895 27.6406 23.916 27.4766C24.002 27.4922 24.084 27.5117 24.1621 27.5352C24.248 27.5508 24.334 27.5586 24.4199 27.5586C24.4668 27.6445 24.5098 27.7305 24.5488 27.8164C24.5879 27.9023 24.6738 27.9414 24.8066 27.9336C24.8145 27.9727 24.8184 28.0156 24.8184 28.0625C24.8262 28.1094 24.8301 28.1523 24.8301 28.1914ZM35.0723 30.3945C35.0723 30.668 35.0215 30.9336 34.9199 31.1914C34.8184 31.4414 34.7441 31.6992 34.6973 31.9648C34.5254 32.1914 34.3652 32.4258 34.2168 32.668C34.0684 32.9102 33.916 33.1523 33.7598 33.3945C33.6035 33.6367 33.4395 33.8711 33.2676 34.0977C33.0957 34.3164 32.9004 34.5156 32.6816 34.6953C32.6895 34.7031 32.6934 34.7188 32.6934 34.7422C32.6934 34.7891 32.6699 34.8281 32.623 34.8594C32.584 34.8828 32.5723 34.9141 32.5879 34.9531C32.3926 35.1562 32.2012 35.3555 32.0137 35.5508C31.8262 35.7461 31.6543 35.9648 31.498 36.207C31.3262 36.293 31.1855 36.4336 31.0762 36.6289C31.0293 36.6289 30.9941 36.6406 30.9707 36.6641C30.9473 36.6797 30.916 36.6953 30.877 36.7109C30.627 37.0156 30.3652 37.3047 30.0918 37.5781C29.8184 37.8516 29.5254 38.1016 29.2129 38.3281C29.0957 38.4141 28.9785 38.4922 28.8613 38.5625C28.7441 38.6328 28.6309 38.707 28.5215 38.7852C28.4512 38.832 28.3809 38.8867 28.3105 38.9492C28.248 39.0117 28.1816 39.0703 28.1113 39.125C27.8848 39.3203 27.6621 39.4844 27.4434 39.6172C27.2246 39.7422 26.9668 39.8281 26.6699 39.875C26.6465 39.9609 26.6348 40.0547 26.6348 40.1562V40.4375C26.6348 40.5312 26.6309 40.6289 26.623 40.7305C26.6152 40.8242 26.5879 40.9141 26.541 41V41.0352C26.541 41.1133 26.5605 41.1875 26.5996 41.2578C26.6387 41.3359 26.6582 41.4141 26.6582 41.4922C26.6582 41.5469 26.6309 41.5938 26.5762 41.6328H26.8809C26.8809 41.7422 26.9121 41.8359 26.9746 41.9141C27.0449 41.9922 27.0801 42.0508 27.0801 42.0898C27.0801 42.2227 27.0645 42.3672 27.0332 42.5234C27.0098 42.6875 26.9316 42.7969 26.7988 42.8516V42.9219C26.7988 43 26.791 43.0742 26.7754 43.1445C26.7598 43.2227 26.7246 43.2969 26.6699 43.3672C26.623 43.3672 26.5762 43.3672 26.5293 43.3672C26.4902 43.375 26.4512 43.3789 26.4121 43.3789C26.084 43.3789 25.791 43.3008 25.5332 43.1445C25.4473 42.9414 25.3887 42.7305 25.3574 42.5117C25.334 42.3008 25.3223 42.0859 25.3223 41.8672C25.3223 41.4375 25.3535 41.0117 25.416 40.5898C25.4785 40.168 25.5293 39.7461 25.5684 39.3242L25.7441 38.9844C25.7598 38.7656 25.7871 38.5469 25.8262 38.3281C25.8652 38.1016 25.9043 37.8789 25.9434 37.6602C25.9824 37.4414 26.0137 37.2227 26.0371 37.0039C26.0684 36.7852 26.0801 36.5664 26.0723 36.3477C26.1348 36.2148 26.1777 36.0742 26.2012 35.9258C26.2324 35.7773 26.248 35.6328 26.248 35.4922C26.248 35.4141 26.2441 35.3359 26.2363 35.2578C26.2285 35.1797 26.2051 35.1055 26.166 35.0352C26.2129 35.0039 26.2441 34.9648 26.2598 34.918C26.2754 34.8711 26.2988 34.8281 26.3301 34.7891C26.3535 34.4844 26.373 34.1836 26.3887 33.8867C26.4043 33.582 26.4121 33.2812 26.4121 32.9844C26.4121 32.8203 26.4082 32.6602 26.4004 32.5039C26.3926 32.3398 26.3809 32.1758 26.3652 32.0117C26.3574 31.9492 26.3418 31.875 26.3184 31.7891C26.3027 31.7031 26.2949 31.6367 26.2949 31.5898C26.2949 31.5273 26.2988 31.4648 26.3066 31.4023C26.3145 31.332 26.3184 31.2617 26.3184 31.1914C26.3184 31.1133 26.3105 31.0391 26.2949 30.9688C26.2793 30.8906 26.252 30.8203 26.2129 30.7578C25.8379 30.8672 25.502 31.0156 25.2051 31.2031C24.9082 31.3828 24.6074 31.5859 24.3027 31.8125C24.1777 31.8984 24.041 32 23.8926 32.1172C23.7441 32.2344 23.6035 32.3242 23.4707 32.3867C23.4473 32.4023 23.4199 32.4141 23.3887 32.4219C23.3496 32.4219 23.3184 32.4219 23.2949 32.4219C23.209 32.4219 23.1309 32.418 23.0605 32.4102C22.9902 32.3945 22.9199 32.3867 22.8496 32.3867C22.7402 32.2773 22.6113 32.1914 22.4629 32.1289C22.4395 32.0352 22.4277 31.9336 22.4277 31.8242C22.4277 31.7148 22.4395 31.6094 22.4629 31.5078C22.4785 31.4062 22.5059 31.3047 22.5449 31.2031C22.6387 31.1719 22.7402 31.1367 22.8496 31.0977C22.9512 31.0586 23.0527 31.0156 23.1543 30.9688C23.248 30.9141 23.334 30.8555 23.4121 30.793C23.4902 30.7227 23.5527 30.6367 23.5996 30.5352C23.6465 30.5586 23.6895 30.5703 23.7285 30.5703C23.7676 30.5703 23.8027 30.5664 23.834 30.5586C23.8652 30.5508 23.9004 30.543 23.9395 30.5352C24.0801 30.4492 24.2207 30.3594 24.3613 30.2656C24.5098 30.1719 24.6621 30.0938 24.8184 30.0312C24.8652 30.0156 24.8926 29.9961 24.9004 29.9727C24.9082 29.9492 24.9082 29.9141 24.9004 29.8672C25.0801 29.8125 25.2676 29.75 25.4629 29.6797C25.6582 29.6016 25.8223 29.4961 25.9551 29.3633H26.166C26.2832 29.2773 26.4082 29.207 26.541 29.1523C26.6738 29.0977 26.8066 29.0469 26.9395 29C27.0801 28.9453 27.2168 28.8906 27.3496 28.8359C27.4824 28.7734 27.6074 28.6953 27.7246 28.6016C27.7715 28.5859 27.8105 28.5781 27.8418 28.5781C27.8809 28.5781 27.9238 28.5859 27.9707 28.6016C28.0488 28.5625 28.1152 28.5156 28.1699 28.4609L28.3574 28.2734C28.4824 28.2734 28.5957 28.2617 28.6973 28.2383C28.7988 28.2148 28.8965 28.1836 28.9902 28.1445C29.084 28.1055 29.1738 28.0625 29.2598 28.0156C29.3535 27.9609 29.4551 27.9062 29.5645 27.8516C29.6113 27.8672 29.6465 27.8867 29.6699 27.9102C29.6934 27.9258 29.7324 27.9336 29.7871 27.9336C29.8652 27.8789 29.9473 27.8398 30.0332 27.8164C30.127 27.7852 30.2207 27.7617 30.3145 27.7461C30.4082 27.7305 30.498 27.7109 30.584 27.6875C30.6777 27.6641 30.7598 27.6211 30.8301 27.5586C31.0801 27.5586 31.3301 27.5547 31.5801 27.5469C31.8379 27.5312 32.0918 27.5234 32.3418 27.5234C32.7012 27.5234 33.0645 27.5508 33.4316 27.6055C33.8066 27.6602 34.1426 27.7969 34.4395 28.0156C34.5566 28.2969 34.7246 28.5352 34.9434 28.7305C34.959 28.8164 34.9746 28.8984 34.9902 28.9766C35.0137 29.0469 35.041 29.1172 35.0723 29.1875C35.0176 29.3047 34.9902 29.4336 34.9902 29.5742C34.9902 29.7148 35.002 29.8555 35.0254 29.9961C35.0566 30.1289 35.0723 30.2617 35.0723 30.3945ZM33.9824 30.1133C33.9434 30.043 33.916 29.9648 33.9004 29.8789C33.8926 29.7852 33.8926 29.6953 33.9004 29.6094C33.7988 29.5312 33.7207 29.4297 33.666 29.3047C33.6113 29.1797 33.5332 29.0859 33.4316 29.0234C33.3613 28.9844 33.2598 28.9609 33.127 28.9531C33.002 28.9453 32.8965 28.9297 32.8105 28.9062C32.709 28.875 32.6387 28.8438 32.5996 28.8125C32.5684 28.7812 32.498 28.7656 32.3887 28.7656C32.2949 28.7656 32.2012 28.7773 32.1074 28.8008C32.0137 28.8164 31.9199 28.8242 31.8262 28.8242C31.748 28.8242 31.6738 28.8086 31.6035 28.7773C31.5332 28.7461 31.459 28.7305 31.3809 28.7305C31.2949 28.7305 31.2129 28.7578 31.1348 28.8125C31.0645 28.8672 30.9785 28.8828 30.877 28.8594C30.8301 28.8984 30.8027 28.9297 30.7949 28.9531C30.7949 28.9766 30.791 28.9961 30.7832 29.0117C30.7754 29.0195 30.7559 29.0234 30.7246 29.0234H30.5605C30.3965 29.0234 30.2285 29.0469 30.0566 29.0938C29.8926 29.1406 29.7441 29.2188 29.6113 29.3281C29.5879 29.3203 29.5645 29.3164 29.541 29.3164C29.5254 29.3086 29.5059 29.3047 29.4824 29.3047C29.3496 29.3047 29.2207 29.3438 29.0957 29.4219C28.9785 29.4922 28.8457 29.5273 28.6973 29.5273C28.6035 29.6211 28.4902 29.6953 28.3574 29.75C28.2246 29.8047 28.0879 29.8594 27.9473 29.9141C27.8145 29.9609 27.6895 30.0195 27.5723 30.0898C27.4551 30.1523 27.3652 30.2461 27.3027 30.3711C27.2949 30.4336 27.3145 30.4727 27.3613 30.4883C27.4082 30.5039 27.4316 30.543 27.4316 30.6055C27.4316 30.6602 27.4199 30.7266 27.3965 30.8047C27.3809 30.8828 27.373 30.9609 27.373 31.0391C27.373 31.2188 27.3926 31.3945 27.4316 31.5664C27.4707 31.7383 27.5098 31.9141 27.5488 32.0938C27.5098 32.1172 27.4824 32.1523 27.4668 32.1992C27.4512 32.2461 27.4238 32.2812 27.3848 32.3047C27.4941 32.6328 27.5488 32.9688 27.5488 33.3125C27.5488 33.5859 27.5176 33.8555 27.4551 34.1211C27.4004 34.3789 27.3613 34.6445 27.3379 34.918V34.9297C27.3379 34.9766 27.3535 35.0078 27.3848 35.0234C27.416 35.0391 27.4316 35.0664 27.4316 35.1055C27.4316 35.1289 27.4277 35.1484 27.4199 35.1641C27.334 35.6953 27.248 36.2266 27.1621 36.7578C27.084 37.2891 27.0176 37.8242 26.9629 38.3633H27.0566C27.2598 38.3633 27.4395 38.3047 27.5957 38.1875C27.7598 38.0625 27.8965 37.9258 28.0059 37.7773H28.1934C28.7559 37.2852 29.2949 36.7773 29.8105 36.2539C30.334 35.7305 30.8301 35.168 31.2988 34.5664C31.3613 34.5664 31.4043 34.5508 31.4277 34.5195C31.4512 34.4883 31.4902 34.4648 31.5449 34.4492C31.709 34.2227 31.8809 34 32.0605 33.7812C32.2402 33.5547 32.4355 33.3398 32.6465 33.1367C32.6543 33.0586 32.6738 32.9883 32.7051 32.9258C32.7441 32.8633 32.7832 32.8047 32.8223 32.75C32.8613 32.6953 32.8965 32.6367 32.9277 32.5742C32.959 32.5117 32.9746 32.4375 32.9746 32.3516C33.0137 32.3359 33.0566 32.3203 33.1035 32.3047C33.1504 32.2812 33.1934 32.25 33.2324 32.2109C33.248 32.1328 33.2754 32.0625 33.3145 32C33.3535 31.9375 33.373 31.8672 33.373 31.7891C33.373 31.7578 33.3652 31.7188 33.3496 31.6719C33.4746 31.6172 33.5723 31.5273 33.6426 31.4023C33.7129 31.2773 33.7676 31.1406 33.8066 30.9922C33.8457 30.8359 33.873 30.6797 33.8887 30.5234C33.9121 30.3672 33.9434 30.2305 33.9824 30.1133ZM45.6777 29.832C45.6152 29.8711 45.5488 29.8945 45.4785 29.9023C45.4082 29.9102 45.334 29.9219 45.2559 29.9375C45.1855 29.9453 45.1191 29.9609 45.0566 29.9844C44.9941 30.0078 44.9473 30.0508 44.916 30.1133C44.8379 30.0352 44.752 29.9688 44.6582 29.9141C44.5645 29.8594 44.4707 29.8008 44.377 29.7383C44.2988 29.7617 44.2207 29.793 44.1426 29.832C44.0645 29.8711 43.9863 29.8906 43.9082 29.8906C43.8535 29.8906 43.7988 29.8711 43.7441 29.832C43.6816 29.8789 43.6074 29.918 43.5215 29.9492C43.4434 29.9727 43.3574 29.9961 43.2637 30.0195C43.1777 30.043 43.0957 30.0742 43.0176 30.1133C42.9473 30.1523 42.8965 30.2109 42.8652 30.2891C42.8496 30.25 42.8105 30.2383 42.748 30.2539C42.6934 30.2695 42.6621 30.25 42.6543 30.1953C42.4043 30.2812 42.1504 30.3555 41.8926 30.418C41.6348 30.4805 41.377 30.5469 41.1191 30.6172C40.8613 30.6875 40.6074 30.7656 40.3574 30.8516C40.1074 30.9375 39.8652 31.043 39.6309 31.168C39.623 31.1758 39.6191 31.1875 39.6191 31.2031C39.6191 31.2812 39.6309 31.3555 39.6543 31.4258C39.6777 31.4961 39.6973 31.5625 39.7129 31.625C39.5723 32.1016 39.4785 32.5859 39.4316 33.0781C39.3848 33.5703 39.3223 34.0547 39.2441 34.5312V34.5781C39.2441 34.6172 39.2598 34.6484 39.291 34.6719C39.3223 34.6875 39.3379 34.7188 39.3379 34.7656L39.3262 34.7891C39.2871 34.8125 39.2598 34.8477 39.2441 34.8945C39.2285 34.9336 39.2207 34.9766 39.2207 35.0234C39.2207 35.0547 39.2285 35.1016 39.2441 35.1641C39.1113 35.6094 39.0215 36.0625 38.9746 36.5234C38.9355 36.9844 38.8848 37.4453 38.8223 37.9062L38.7168 38.6797C38.7012 38.7266 38.6855 38.7734 38.6699 38.8203C38.6621 38.8594 38.6582 38.9023 38.6582 38.9492C38.6582 39.1992 38.6738 39.4453 38.7051 39.6875C38.7441 39.9219 38.7559 40.1641 38.7402 40.4141C38.8105 40.5234 38.8457 40.6289 38.8457 40.7305C38.8457 40.7695 38.8418 40.8086 38.834 40.8477C38.834 40.8867 38.8301 40.9258 38.8223 40.9648C38.9238 41.0664 39.041 41.1367 39.1738 41.1758C39.3145 41.2227 39.4395 41.293 39.5488 41.3867V41.4336C39.5488 41.5117 39.5371 41.5859 39.5137 41.6562C39.4902 41.7344 39.4707 41.8125 39.4551 41.8906C39.4395 41.9531 39.4199 42.043 39.3965 42.1602C39.3809 42.2773 39.3574 42.3555 39.3262 42.3945C39.2871 42.4492 39.2285 42.4961 39.1504 42.5352C39.0801 42.582 39.0098 42.6055 38.9395 42.6055C38.916 42.6055 38.8809 42.5938 38.834 42.5703C38.7949 42.5469 38.7637 42.5273 38.7402 42.5117C38.7012 42.5117 38.6504 42.5312 38.5879 42.5703C38.5254 42.6094 38.4629 42.6289 38.4004 42.6289C38.3691 42.6289 38.3418 42.625 38.3184 42.6172C38.2949 42.6172 38.2676 42.6094 38.2363 42.5938C38.2051 42.5156 38.1582 42.4453 38.0957 42.3828C38.041 42.3281 37.9746 42.2734 37.8965 42.2188C37.9043 42.1094 37.8848 42.0273 37.8379 41.9727C37.791 41.918 37.7441 41.8477 37.6973 41.7617C37.6816 41.6523 37.666 41.5273 37.6504 41.3867C37.6426 41.2461 37.584 41.1445 37.4746 41.082C37.5137 41.0273 37.5332 40.9531 37.5332 40.8594C37.5332 40.8203 37.5254 40.7773 37.5098 40.7305C37.502 40.6836 37.4785 40.6484 37.4395 40.625V40.6016C37.4316 40.5625 37.4434 40.5352 37.4746 40.5195C37.5137 40.4961 37.5332 40.4648 37.5332 40.4258V40.3789C37.4785 40.1289 37.4512 39.8672 37.4512 39.5938C37.4512 39.3359 37.459 39.082 37.4746 38.832C37.4902 38.5742 37.4902 38.3164 37.4746 38.0586C37.5215 38.0195 37.5566 37.957 37.5801 37.8711C37.6113 37.7852 37.6348 37.6914 37.6504 37.5898C37.666 37.4883 37.6738 37.3906 37.6738 37.2969C37.6816 37.1953 37.6895 37.1133 37.6973 37.0508C37.7363 36.6055 37.7988 36.168 37.8848 35.7383C37.9707 35.3008 38.0215 34.8555 38.0371 34.4023C38.0762 34.3398 38.0996 34.2578 38.1074 34.1562C38.1152 34.0547 38.1191 33.9492 38.1191 33.8398C38.1191 33.7227 38.127 33.6094 38.1426 33.5C38.1582 33.3906 38.1895 33.2969 38.2363 33.2188C38.2363 33 38.2559 32.7812 38.2949 32.5625C38.334 32.3359 38.3535 32.1094 38.3535 31.8828C38.3535 31.7734 38.3418 31.6602 38.3184 31.543C38.2402 31.5117 38.1699 31.4961 38.1074 31.4961C38.0215 31.4961 37.9316 31.5156 37.8379 31.5547C37.752 31.5859 37.6895 31.6367 37.6504 31.707C37.4785 31.7148 37.3105 31.7422 37.1465 31.7891C36.9824 31.8359 36.8184 31.8594 36.6543 31.8594H36.5371C36.5059 31.8594 36.4707 31.8555 36.4316 31.8477C36.377 31.8711 36.3184 31.8906 36.2559 31.9062C36.2012 31.9219 36.1777 31.9688 36.1855 32.0469C35.9434 32.0703 35.7051 32.1211 35.4707 32.1992C35.2441 32.2773 35.0176 32.3633 34.791 32.457C34.5645 32.543 34.3379 32.625 34.1113 32.7031C33.877 32.7812 33.6387 32.832 33.3965 32.8555C33.3105 32.8945 33.2559 32.9766 33.2324 33.1016C33.0605 33.0859 32.916 33.043 32.7988 32.9727C32.6816 32.9023 32.5449 32.8359 32.3887 32.7734C32.3418 32.6094 32.3184 32.4531 32.3184 32.3047C32.3184 32.1094 32.3574 31.9219 32.4355 31.7422C32.5137 31.5625 32.6387 31.4297 32.8105 31.3438C32.8496 31.3516 32.8848 31.3594 32.916 31.3672C32.9473 31.3672 32.9824 31.3672 33.0215 31.3672C33.1465 31.3672 33.2715 31.3438 33.3965 31.2969C33.5215 31.25 33.6504 31.2266 33.7832 31.2266C33.8223 31.2266 33.8652 31.2383 33.9121 31.2617C33.9668 31.2305 34.0371 31.207 34.123 31.1914C34.2012 31.168 34.2754 31.1484 34.3457 31.1328C34.4238 31.1094 34.4941 31.0781 34.5566 31.0391C34.6191 31 34.6582 30.9453 34.6738 30.875C34.7129 30.9062 34.7559 30.9258 34.8027 30.9336C34.8496 30.9414 34.8965 30.9453 34.9434 30.9453C35.0449 30.9453 35.1504 30.9258 35.2598 30.8867C35.3691 30.8477 35.4551 30.7852 35.5176 30.6992C35.5723 30.7617 35.6504 30.793 35.752 30.793C35.8613 30.793 35.9668 30.7656 36.0684 30.7109C36.1777 30.6484 36.2832 30.6172 36.3848 30.6172C36.4629 30.6172 36.5215 30.6445 36.5605 30.6992C36.6465 30.6289 36.748 30.5742 36.8652 30.5352C36.9824 30.4961 37.0996 30.4609 37.2168 30.4297C37.3418 30.3984 37.4551 30.3633 37.5566 30.3242C37.666 30.2852 37.752 30.2305 37.8145 30.1602C37.8535 30.168 37.916 30.1719 38.002 30.1719C38.1348 30.1719 38.2598 30.1562 38.377 30.125C38.502 30.0859 38.627 30.0508 38.752 30.0195L38.998 29.9961C39.0605 29.9883 39.1152 29.9688 39.1621 29.9375C39.2168 29.9062 39.2715 29.8789 39.3262 29.8555C39.3809 29.832 39.4355 29.8125 39.4902 29.7969C39.5527 29.7812 39.627 29.7773 39.7129 29.7852C39.9004 29.6836 40.0996 29.6055 40.3105 29.5508C40.5215 29.4961 40.7363 29.4492 40.9551 29.4102C41.1738 29.3633 41.3887 29.3125 41.5996 29.2578C41.8105 29.1953 42.0098 29.1055 42.1973 28.9883H42.2324C42.3887 28.9883 42.541 28.9609 42.6895 28.9062C42.8457 28.8516 42.9902 28.7773 43.123 28.6836C43.1465 28.6914 43.1699 28.6953 43.1934 28.6953H43.2754C43.4941 28.6953 43.7051 28.6641 43.9082 28.6016C44.1191 28.5391 44.3379 28.5078 44.5645 28.5078C44.6973 28.5078 44.8027 28.5273 44.8809 28.5664C44.959 28.5977 45.0293 28.6406 45.0918 28.6953C45.1543 28.7422 45.2207 28.7891 45.291 28.8359C45.3613 28.8828 45.4512 28.918 45.5605 28.9414C45.6309 29.0742 45.666 29.2188 45.666 29.375C45.666 29.5234 45.6699 29.6758 45.6777 29.832ZM54.8535 28.1914C54.8535 28.2617 54.8496 28.332 54.8418 28.4023C54.8418 28.4727 54.8379 28.5391 54.8301 28.6016C54.8066 28.6406 54.7598 28.6562 54.6895 28.6484C54.627 28.6406 54.5762 28.6367 54.5371 28.6367C54.498 28.6367 54.4629 28.6445 54.4316 28.6602C54.4082 28.668 54.3965 28.6914 54.3965 28.7305C54.3965 28.7773 54.4004 28.8086 54.4082 28.8242C54.3457 28.8164 54.2793 28.8086 54.209 28.8008C54.1387 28.793 54.0762 28.7695 54.0215 28.7305C53.9121 28.7539 53.8066 28.7852 53.7051 28.8242C53.6113 28.8633 53.5176 28.9062 53.4238 28.9531C53.3301 29 53.2324 29.043 53.1309 29.082C53.0293 29.1211 52.9238 29.1445 52.8145 29.1523C52.7441 29.2305 52.6543 29.2891 52.5449 29.3281C52.4355 29.3672 52.3223 29.4023 52.2051 29.4336C52.0879 29.4648 51.9785 29.5039 51.877 29.5508C51.7754 29.5898 51.6934 29.6523 51.6309 29.7383C51.459 29.7539 51.2949 29.7969 51.1387 29.8672C50.9824 29.9375 50.8262 30.0117 50.6699 30.0898C50.5215 30.168 50.3691 30.2422 50.2129 30.3125C50.0566 30.3828 49.8887 30.4297 49.709 30.4531C49.6621 30.5 49.6035 30.5391 49.5332 30.5703C49.4707 30.6016 49.4043 30.6328 49.334 30.6641C49.2637 30.6875 49.1973 30.7148 49.1348 30.7461C49.0723 30.7773 49.0215 30.8203 48.9824 30.875H48.959C48.9277 30.875 48.9043 30.8672 48.8887 30.8516C48.873 30.8359 48.8496 30.8281 48.8184 30.8281C48.7949 30.8281 48.7793 30.832 48.7715 30.8398C48.584 30.9258 48.3965 31.0156 48.209 31.1094C48.0215 31.2031 47.8262 31.293 47.623 31.3789C47.2246 31.543 46.8223 31.7031 46.416 31.8594C46.0098 32.0156 45.6191 32.207 45.2441 32.4336C45.1582 32.7461 45.0879 33.0664 45.0332 33.3945C44.9785 33.7148 44.8809 34.0234 44.7402 34.3203V34.8711C44.6621 35.0195 44.6113 35.1836 44.5879 35.3633C44.5645 35.543 44.5527 35.7148 44.5527 35.8789C44.5527 35.9414 44.5527 36 44.5527 36.0547C44.5605 36.1016 44.5645 36.1523 44.5645 36.207C44.791 36.1445 45.0098 36.0742 45.2207 35.9961C45.4395 35.918 45.6582 35.8477 45.877 35.7852C45.9863 35.7461 46.0957 35.7188 46.2051 35.7031C46.3223 35.6875 46.4355 35.6602 46.5449 35.6211C46.6309 35.5977 46.7207 35.5664 46.8145 35.5273C46.9082 35.4805 46.998 35.4375 47.084 35.3984C47.3184 35.2969 47.5566 35.207 47.7988 35.1289C48.0488 35.0508 48.3027 34.9922 48.5605 34.9531C48.6387 34.8906 48.7246 34.832 48.8184 34.7773C48.9121 34.7227 49.0059 34.6953 49.0996 34.6953C49.1699 34.6953 49.2285 34.707 49.2754 34.7305C49.4082 34.6523 49.5645 34.582 49.7441 34.5195C49.9238 34.457 50.0918 34.4336 50.248 34.4492C50.2871 34.3945 50.334 34.3594 50.3887 34.3438C50.4434 34.3203 50.502 34.3086 50.5645 34.3086C50.5957 34.3086 50.623 34.3125 50.6465 34.3203C50.6777 34.3203 50.7129 34.3203 50.752 34.3203C50.8301 34.2656 50.916 34.2266 51.0098 34.2031C51.1035 34.1797 51.1973 34.1602 51.291 34.1445C51.3848 34.1289 51.4746 34.1094 51.5605 34.0859C51.6543 34.0547 51.7363 34.0078 51.8066 33.9453C51.916 33.9531 52.002 33.9844 52.0645 34.0391C52.1348 34.0938 52.1934 34.1602 52.2402 34.2383C52.2871 34.3164 52.3262 34.3984 52.3574 34.4844C52.3887 34.5703 52.4277 34.6523 52.4746 34.7305C52.459 34.793 52.4355 34.8438 52.4043 34.8828C52.373 34.9141 52.3379 34.9453 52.2988 34.9766C52.2598 35.0078 52.2246 35.0391 52.1934 35.0703C52.1621 35.1016 52.1426 35.1445 52.1348 35.1992C51.8613 35.1992 51.5957 35.2383 51.3379 35.3164C51.0879 35.3945 50.8379 35.4844 50.5879 35.5859C50.3457 35.6875 50.0957 35.7852 49.8379 35.8789C49.5879 35.9648 49.3301 36.0195 49.0645 36.043C49.0254 36.082 48.9746 36.1133 48.9121 36.1367L48.7363 36.1953C48.6816 36.2109 48.6309 36.2344 48.584 36.2656C48.5371 36.2891 48.502 36.3281 48.4785 36.3828C48.4316 36.3594 48.3809 36.3477 48.3262 36.3477C48.1934 36.3477 48.0645 36.3828 47.9395 36.4531C47.8145 36.5234 47.6738 36.5586 47.5176 36.5586C47.4551 36.5586 47.4121 36.5547 47.3887 36.5469C47.3496 36.6172 47.291 36.668 47.2129 36.6992C47.1426 36.7305 47.0645 36.7578 46.9785 36.7812C46.9004 36.7969 46.8223 36.8203 46.7441 36.8516C46.6738 36.8828 46.6191 36.9375 46.5801 37.0156C46.5566 37.0078 46.5293 37.0039 46.498 37.0039H46.4277C46.3027 37.0039 46.1582 37.0273 45.9941 37.0742C45.8379 37.1133 45.7246 37.1914 45.6543 37.3086C45.5918 37.293 45.5371 37.2852 45.4902 37.2852C45.3809 37.2852 45.2832 37.3086 45.1973 37.3555C45.1113 37.3945 45.0254 37.4414 44.9395 37.4961L44.6816 37.6602C44.5957 37.7148 44.502 37.7539 44.4004 37.7773C44.1973 38.0664 44.0566 38.3984 43.9785 38.7734C43.9004 39.1484 43.8418 39.5391 43.8027 39.9453C43.7715 40.3516 43.7402 40.7539 43.709 41.1523C43.6777 41.5586 43.6152 41.9297 43.5215 42.2656C43.5684 42.3906 43.6035 42.5234 43.627 42.6641C43.6504 42.8047 43.6699 42.9453 43.6855 43.0859C43.7012 43.2344 43.7168 43.3828 43.7324 43.5312C43.748 43.6797 43.7754 43.8203 43.8145 43.9531C43.8535 44.1172 43.9277 44.2617 44.0371 44.3867C44.1543 44.5195 44.2363 44.668 44.2832 44.832C44.3223 44.8398 44.3613 44.8438 44.4004 44.8438C44.4473 44.8516 44.4941 44.8555 44.541 44.8555C44.8223 44.8555 45.0684 44.8008 45.2793 44.6914C45.498 44.582 45.7012 44.4453 45.8887 44.2812C46.0762 44.125 46.2559 43.9531 46.4277 43.7656C46.6074 43.5859 46.7988 43.4258 47.002 43.2852H47.2246C47.2793 43.2227 47.3262 43.1562 47.3652 43.0859C47.4043 43.0156 47.4473 42.9492 47.4941 42.8867C47.541 42.8242 47.5957 42.7695 47.6582 42.7227C47.7207 42.6836 47.7988 42.6562 47.8926 42.6406C47.916 42.5234 47.9707 42.4336 48.0566 42.3711C48.1426 42.3086 48.2012 42.2148 48.2324 42.0898C48.248 42.0977 48.2676 42.1016 48.291 42.1016C48.3535 42.1016 48.4004 42.0859 48.4316 42.0547L48.6074 41.8906C48.6699 41.8281 48.7363 41.7656 48.8066 41.7031C48.8848 41.6484 48.959 41.5938 49.0293 41.5391C49.2559 41.375 49.4824 41.2109 49.709 41.0469C49.9355 40.8906 50.1426 40.707 50.3301 40.4961C50.3379 40.5039 50.3496 40.5078 50.3652 40.5078C50.4277 40.5078 50.4707 40.4883 50.4941 40.4492C50.5176 40.4102 50.5723 40.3984 50.6582 40.4141C50.7051 40.3438 50.748 40.2734 50.7871 40.2031C50.8262 40.125 50.8574 40.043 50.8809 39.957L51.2559 40.0039C51.3809 40.0195 51.5059 40.0273 51.6309 40.0273C51.6699 40.0273 51.7051 40.0273 51.7363 40.0273C51.7754 40.0195 51.8105 40.0078 51.8418 39.9922C51.9355 40.1406 51.9863 40.3008 51.9941 40.4727C52.002 40.6367 52.0215 40.8008 52.0527 40.9648C52.0371 40.9648 52.0254 40.9648 52.0176 40.9648C52.0176 40.957 52.0098 40.9531 51.9941 40.9531C51.9551 40.9531 51.916 40.9688 51.877 41C51.8457 41.0234 51.8105 41.0547 51.7715 41.0938L51.6543 41.2109C51.6152 41.25 51.5801 41.2812 51.5488 41.3047C51.4629 41.3594 51.373 41.4062 51.2793 41.4453C51.1855 41.4922 51.0957 41.5391 51.0098 41.5859C50.9238 41.6328 50.8418 41.6875 50.7637 41.75C50.6855 41.8203 50.623 41.9062 50.5762 42.0078C50.4199 42.0703 50.2676 42.1367 50.1191 42.207C49.9785 42.2773 49.8418 42.3516 49.709 42.4297C49.6699 42.4688 49.6348 42.5078 49.6035 42.5469C49.5723 42.5859 49.5488 42.6289 49.5332 42.6758C49.3223 42.7461 49.1465 42.8516 49.0059 42.9922C48.873 43.1328 48.7363 43.2852 48.5957 43.4492L48.584 43.4375C48.5293 43.4375 48.4941 43.457 48.4785 43.4961C48.4707 43.5352 48.4277 43.5469 48.3496 43.5312C48.2012 43.6953 48.0449 43.8477 47.8809 43.9883C47.7168 44.1289 47.5488 44.2695 47.377 44.4102C47.2051 44.5508 47.0332 44.6914 46.8613 44.832C46.6895 44.9805 46.5293 45.1367 46.3809 45.3008C46.2793 45.332 46.1816 45.3711 46.0879 45.418C45.9941 45.4648 45.9238 45.5352 45.877 45.6289H45.8418C45.7559 45.6289 45.6934 45.6484 45.6543 45.6875C45.623 45.7266 45.584 45.7773 45.5371 45.8398C45.373 45.8789 45.2051 45.9219 45.0332 45.9688C44.8613 46.0156 44.6855 46.0391 44.5059 46.0391C44.3809 46.0391 44.2598 46.0156 44.1426 45.9688C44.0332 45.9219 43.9238 45.8594 43.8145 45.7812C43.7129 45.7109 43.6152 45.6328 43.5215 45.5469C43.4355 45.4609 43.3535 45.3789 43.2754 45.3008C43.2285 45.1445 43.166 44.9805 43.0879 44.8086C43.0176 44.6445 42.9824 44.4844 42.9824 44.3281C42.9824 44.2891 42.9863 44.25 42.9941 44.2109C43.0098 44.1797 43.0176 44.1484 43.0176 44.1172C43.0176 44.0625 42.998 44.0391 42.959 44.0469C42.9277 44.0547 42.9043 44.0352 42.8887 43.9883C42.873 43.9102 42.8613 43.8203 42.8535 43.7188C42.8535 43.625 42.8457 43.5352 42.8301 43.4492C42.8066 43.2695 42.7754 43.0859 42.7363 42.8984C42.7051 42.7109 42.6699 42.5273 42.6309 42.3477C42.6621 42.332 42.6855 42.3047 42.7012 42.2656C42.7246 42.2344 42.748 42.2031 42.7715 42.1719C42.748 42.1094 42.7246 42.0391 42.7012 41.9609C42.6855 41.8906 42.6777 41.8164 42.6777 41.7383C42.6777 41.582 42.7363 41.4648 42.8535 41.3867C42.8535 41.332 42.8379 41.2891 42.8066 41.2578C42.7832 41.2344 42.7715 41.1914 42.7715 41.1289C42.7715 41.1133 42.7754 41.0703 42.7832 41C42.7988 40.9219 42.8145 40.8359 42.8301 40.7422C42.8535 40.6484 42.873 40.5586 42.8887 40.4727C42.9043 40.3867 42.916 40.3281 42.9238 40.2969C42.9785 39.9375 43.0254 39.5859 43.0645 39.2422C43.1035 38.8906 43.1582 38.5391 43.2285 38.1875C43.1504 38.125 43.0488 38.0781 42.9238 38.0469C42.8066 38.0078 42.7246 37.957 42.6777 37.8945C42.6387 37.8398 42.6074 37.7695 42.584 37.6836C42.5605 37.5977 42.5488 37.5234 42.5488 37.4609C42.5488 37.2344 42.6387 37.0547 42.8184 36.9219C42.998 36.7812 43.1895 36.6992 43.3926 36.6758C43.4941 36.4023 43.5684 36.125 43.6152 35.8438C43.6699 35.5547 43.7129 35.2656 43.7441 34.9766L43.8379 34.0977C43.8691 33.8008 43.916 33.5078 43.9785 33.2188H43.9082C43.752 33.2188 43.5996 33.2422 43.4512 33.2891C43.3027 33.3359 43.1504 33.3594 42.9941 33.3594H42.9707C42.7441 33.1797 42.6309 32.9648 42.6309 32.7148C42.6309 32.5664 42.6621 32.418 42.7246 32.2695C42.8496 32.2227 42.9629 32.1602 43.0645 32.082C43.166 32.0039 43.2676 31.9258 43.3691 31.8477C43.4785 31.7617 43.5879 31.6875 43.6973 31.625C43.8066 31.5625 43.9277 31.5234 44.0605 31.5078C44.0762 31.2812 44.1152 31.0547 44.1777 30.8281C44.2402 30.6016 44.2715 30.375 44.2715 30.1484C44.2715 30.1016 44.2676 30.0547 44.2598 30.0078C44.2598 29.9609 44.252 29.9141 44.2363 29.8672C44.291 29.7969 44.3262 29.7227 44.3418 29.6445C44.3652 29.5664 44.377 29.4844 44.377 29.3984C44.377 29.3047 44.3691 29.2148 44.3535 29.1289C44.3457 29.0352 44.334 28.9453 44.3184 28.8594C44.3887 28.8281 44.4434 28.7969 44.4824 28.7656C44.5215 28.7266 44.5566 28.6914 44.5879 28.6602C44.627 28.6289 44.6738 28.6016 44.7285 28.5781C44.7832 28.5547 44.8613 28.543 44.9629 28.543C45.1113 28.543 45.2363 28.5742 45.3379 28.6367C45.4473 28.6914 45.541 28.7656 45.6191 28.8594C45.6973 28.9531 45.7637 29.0586 45.8184 29.1758C45.8809 29.293 45.9395 29.4102 45.9941 29.5273C45.9785 29.6133 45.9434 29.6758 45.8887 29.7148C45.834 29.7539 45.7871 29.8047 45.748 29.8672C45.7637 29.9922 45.7793 30.1133 45.7949 30.2305C45.8105 30.3398 45.8105 30.457 45.7949 30.582C45.873 30.6211 45.9473 30.6406 46.0176 30.6406C46.1348 30.6406 46.2402 30.6094 46.334 30.5469C46.4355 30.4844 46.5059 30.3984 46.5449 30.2891H46.5684C46.5918 30.2891 46.6113 30.2969 46.627 30.3125C46.6504 30.3281 46.6777 30.3359 46.709 30.3359H46.7559C46.8418 30.2578 46.9355 30.1992 47.0371 30.1602C47.1387 30.1133 47.2441 30.0703 47.3535 30.0312C47.4629 29.9922 47.5684 29.9531 47.6699 29.9141C47.7793 29.8672 47.8809 29.8086 47.9746 29.7383C48.0215 29.7617 48.0723 29.7734 48.127 29.7734C48.2051 29.7734 48.2793 29.7578 48.3496 29.7266C48.4277 29.6953 48.502 29.6641 48.5723 29.6328C48.6426 29.5938 48.7168 29.5586 48.7949 29.5273C48.8809 29.4961 48.9707 29.4805 49.0645 29.4805C49.0801 29.4805 49.0996 29.4844 49.123 29.4922C49.1465 29.4922 49.166 29.4922 49.1816 29.4922C49.2363 29.4922 49.2676 29.4727 49.2754 29.4336C49.2832 29.3945 49.2832 29.3594 49.2754 29.3281C49.5254 29.2656 49.7402 29.1953 49.9199 29.1172C50.1074 29.0312 50.3145 28.9336 50.541 28.8242C50.541 28.8164 50.5488 28.8125 50.5645 28.8125C50.5879 28.8125 50.6035 28.8242 50.6113 28.8477C50.6191 28.8711 50.623 28.8906 50.623 28.9062C50.6699 28.8828 50.6934 28.8438 50.6934 28.7891C50.7012 28.7344 50.7207 28.6875 50.752 28.6484C50.7832 28.6562 50.8262 28.6602 50.8809 28.6602C50.9512 28.6602 51.0215 28.6445 51.0918 28.6133C51.1699 28.582 51.2441 28.5469 51.3145 28.5078C51.3848 28.4688 51.4551 28.4336 51.5254 28.4023C51.5957 28.3711 51.666 28.3555 51.7363 28.3555C51.7988 28.3555 51.8496 28.3711 51.8887 28.4023C51.9355 28.3789 51.9824 28.3477 52.0293 28.3086C52.0762 28.2617 52.127 28.2383 52.1816 28.2383C52.1973 28.2383 52.209 28.2422 52.2168 28.25C52.2324 28.2578 52.248 28.2656 52.2637 28.2734C52.3027 28.2344 52.3379 28.2031 52.3691 28.1797C52.4082 28.1562 52.4277 28.1172 52.4277 28.0625C52.7168 28.0312 52.9824 27.9688 53.2246 27.875C53.4746 27.7734 53.7129 27.6406 53.9395 27.4766C54.0254 27.4922 54.1074 27.5117 54.1855 27.5352C54.2715 27.5508 54.3574 27.5586 54.4434 27.5586C54.4902 27.6445 54.5332 27.7305 54.5723 27.8164C54.6113 27.9023 54.6973 27.9414 54.8301 27.9336C54.8379 27.9727 54.8418 28.0156 54.8418 28.0625C54.8496 28.1094 54.8535 28.1523 54.8535 28.1914ZM65.6934 44.0352C65.6934 44.1055 65.666 44.168 65.6113 44.2227C65.5645 44.2773 65.5059 44.3203 65.4355 44.3516C65.3652 44.3906 65.291 44.4258 65.2129 44.457C65.1426 44.4883 65.0801 44.5156 65.0254 44.5391C64.9395 44.4922 64.8496 44.4609 64.7559 44.4453C64.6699 44.4297 64.5918 44.3906 64.5215 44.3281H64.4395C64.3145 44.3281 64.2168 44.3438 64.1465 44.375C64.0371 44.3359 63.9473 44.2773 63.877 44.1992C63.8066 44.1289 63.7402 44.0508 63.6777 43.9648C63.6152 43.8867 63.5527 43.8086 63.4902 43.7305C63.4277 43.6523 63.3496 43.5859 63.2559 43.5312C63.1152 43.1406 62.9902 42.7461 62.8809 42.3477C62.7715 41.9492 62.6895 41.543 62.6348 41.1289C62.6504 41.0898 62.6621 41.0469 62.6699 41C62.6777 40.9531 62.6816 40.9102 62.6816 40.8711C62.6816 40.8398 62.6738 40.8086 62.6582 40.7773C62.6504 40.7383 62.627 40.7148 62.5879 40.707C62.627 40.6445 62.6504 40.5742 62.6582 40.4961C62.6738 40.4102 62.6816 40.332 62.6816 40.2617C62.6816 40.1055 62.666 39.9766 62.6348 39.875C62.6816 39.8359 62.7012 39.7734 62.6934 39.6875C62.6855 39.5938 62.7051 39.5273 62.752 39.4883C62.7129 39.3555 62.6934 39.2266 62.6934 39.1016C62.6934 38.9297 62.7129 38.7617 62.752 38.5977C62.7988 38.4336 62.8223 38.2656 62.8223 38.0938C62.8223 38.0547 62.8184 38.0156 62.8105 37.9766C62.8105 37.9375 62.8066 37.8984 62.7988 37.8594C62.8379 37.7344 62.873 37.6094 62.9043 37.4844C62.9434 37.3516 62.9629 37.2188 62.9629 37.0859C62.9629 36.9922 62.9473 36.9141 62.916 36.8516C63.0176 36.4922 63.0879 36.1367 63.127 35.7852C63.1738 35.4258 63.2168 35.0625 63.2559 34.6953C63.248 34.6797 63.2402 34.668 63.2324 34.6602C63.2246 34.6523 63.2207 34.6406 63.2207 34.625C63.2207 34.5859 63.2402 34.5547 63.2793 34.5312C63.3262 34.5078 63.3457 34.4648 63.3379 34.4023C63.2441 34.4961 63.166 34.6055 63.1035 34.7305C63.0488 34.8555 62.9941 34.9805 62.9395 35.1055C62.8926 35.2305 62.8379 35.3555 62.7754 35.4805C62.7207 35.5977 62.6465 35.7031 62.5527 35.7969C62.5449 35.8828 62.5176 35.9648 62.4707 36.043C62.4316 36.1211 62.4121 36.207 62.4121 36.3008C62.4043 36.3008 62.3965 36.3008 62.3887 36.3008C62.3809 36.293 62.3691 36.2891 62.3535 36.2891C62.3223 36.2891 62.2988 36.3086 62.2832 36.3477C62.2754 36.3867 62.252 36.3984 62.2129 36.3828C62.0332 36.7344 61.834 37.0781 61.6152 37.4141C61.4043 37.75 61.127 38.0195 60.7832 38.2227C60.7207 38.1992 60.6621 38.1875 60.6074 38.1875C60.5059 38.1875 60.4043 38.2188 60.3027 38.2812C60.209 38.3359 60.1465 38.3633 60.1152 38.3633C60.0371 38.3633 59.9395 38.3242 59.8223 38.2461C59.7129 38.1602 59.5996 38.1133 59.4824 38.1055C59.3574 38.0195 59.252 37.9336 59.166 37.8477C59.0879 37.7539 58.9668 37.6992 58.8027 37.6836C58.6934 37.5195 58.584 37.3633 58.4746 37.2148C58.373 37.0664 58.2715 36.9219 58.1699 36.7812C58.0762 36.6328 57.9902 36.4766 57.9121 36.3125C57.8418 36.1484 57.7871 35.9648 57.748 35.7617C57.7559 35.7461 57.7598 35.7305 57.7598 35.7148C57.7598 35.668 57.7363 35.6484 57.6895 35.6562C57.6504 35.6641 57.6309 35.6406 57.6309 35.5859V35.5039C57.6309 35.4414 57.6191 35.3867 57.5957 35.3398C57.5801 35.2852 57.5762 35.2266 57.584 35.1641C57.5293 35.0781 57.4863 34.9883 57.4551 34.8945C57.4238 34.8008 57.3691 34.7188 57.291 34.6484V34.543C57.291 34.4961 57.2871 34.4531 57.2793 34.4141C57.2793 34.3672 57.2676 34.3281 57.2441 34.2969C57.2285 34.2578 57.2012 34.2344 57.1621 34.2266C57.1543 33.9453 57.0957 33.6602 56.9863 33.3711C56.8848 33.0742 56.791 32.7891 56.7051 32.5156C56.6426 32.7188 56.5957 32.9258 56.5645 33.1367C56.5332 33.3398 56.5176 33.5469 56.5176 33.7578V33.957C56.5176 34.0195 56.5254 34.082 56.541 34.1445C56.5176 34.1836 56.4824 34.2109 56.4355 34.2266C56.3965 34.2422 56.373 34.2734 56.3652 34.3203C56.3574 34.3594 56.3535 34.3984 56.3535 34.4375C56.3613 34.4766 56.3613 34.5156 56.3535 34.5547C56.3379 34.7422 56.3145 34.9219 56.2832 35.0938C56.2363 35.3516 56.1816 35.6133 56.1191 35.8789C56.0566 36.1367 56.0254 36.4023 56.0254 36.6758C56.0254 36.6914 56.0254 36.7148 56.0254 36.7461C56.0332 36.7695 56.0371 36.7891 56.0371 36.8047C55.9121 36.9141 55.8457 37.0508 55.8379 37.2148C55.8301 37.3789 55.8105 37.5352 55.7793 37.6836C55.7402 37.9023 55.6934 38.1211 55.6387 38.3398C55.584 38.5508 55.5371 38.7695 55.498 38.9961C55.4746 39.1211 55.4551 39.2461 55.4395 39.3711C55.4238 39.4883 55.4082 39.6094 55.3926 39.7344C55.3848 39.8047 55.3574 39.8633 55.3105 39.9102C55.2715 39.957 55.2441 40.0117 55.2285 40.0742C55.2207 40.1289 55.2168 40.1914 55.2168 40.2617C55.2246 40.3242 55.2285 40.3828 55.2285 40.4375C55.2285 40.5312 55.2207 40.6211 55.2051 40.707C55.1895 40.7852 55.1426 40.8555 55.0645 40.918C55.0801 41.1211 55.1152 41.293 55.1699 41.4336C55.2246 41.582 55.2871 41.7461 55.3574 41.9258H55.6504V41.9727C55.6504 42.0508 55.6621 42.1211 55.6855 42.1836C55.7168 42.2461 55.7754 42.2734 55.8613 42.2656C55.8535 42.2969 55.8496 42.3359 55.8496 42.3828C55.8496 42.4531 55.8613 42.5156 55.8848 42.5703C55.916 42.6328 55.9395 42.6992 55.9551 42.7695C55.7988 43.0273 55.6309 43.2188 55.4512 43.3438C55.2715 43.4688 55.0254 43.5312 54.7129 43.5312H54.5254C54.4863 43.4062 54.4395 43.2852 54.3848 43.168C54.3301 43.0508 54.2754 42.9336 54.2207 42.8164C54.1738 42.6992 54.1309 42.5781 54.0918 42.4531C54.0605 42.3359 54.0449 42.2109 54.0449 42.0781C54.0449 42.0469 54.0488 42.0156 54.0566 41.9844C54.0645 41.9609 54.0684 41.9336 54.0684 41.9023C54.0684 41.8633 54.0527 41.8398 54.0215 41.832C53.9902 41.8242 53.9746 41.7852 53.9746 41.7148C53.9746 41.6602 53.9707 41.6094 53.9629 41.5625C53.9629 41.5156 53.9629 41.4648 53.9629 41.4102C53.9629 41.1523 53.9824 40.8984 54.0215 40.6484C54.0605 40.3906 54.0879 40.1328 54.1035 39.875C54.1426 39.8359 54.1621 39.7852 54.1621 39.7227C54.1621 39.6602 54.1816 39.6094 54.2207 39.5703V39.4883C54.2207 39.3477 54.2363 39.207 54.2676 39.0664C54.2988 38.9258 54.334 38.7891 54.373 38.6562C54.4121 38.5234 54.4473 38.3867 54.4785 38.2461C54.5098 38.1055 54.5254 37.9648 54.5254 37.8242V37.6367C54.5254 37.582 54.5488 37.5586 54.5957 37.5664C54.6504 37.5664 54.6816 37.5352 54.6895 37.4727C54.7051 37.3633 54.7129 37.2578 54.7129 37.1562C54.7207 37.0469 54.7324 36.9375 54.748 36.8281C54.7871 36.6172 54.8301 36.4062 54.877 36.1953C54.9238 35.9766 54.9473 35.7578 54.9473 35.5391V35.5039C54.9473 35.4805 54.9668 35.4336 55.0059 35.3633C55.0449 35.2852 55.0645 35.2109 55.0645 35.1406C55.0645 35.0859 55.0527 35.0352 55.0293 34.9883C55.0371 34.9961 55.0527 35 55.0762 35C55.1074 35 55.127 34.9922 55.1348 34.9766C55.1504 34.9531 55.1699 34.9336 55.1934 34.918C55.1699 34.8867 55.1582 34.8555 55.1582 34.8242C55.1582 34.7852 55.1621 34.75 55.1699 34.7188C55.1855 34.6797 55.1934 34.6406 55.1934 34.6016C55.1934 34.5469 55.166 34.5078 55.1113 34.4844C55.2051 34.3125 55.2715 34.1289 55.3105 33.9336C55.3574 33.7383 55.3887 33.5391 55.4043 33.3359C55.4277 33.1328 55.4473 32.9297 55.4629 32.7266C55.4785 32.5156 55.5137 32.3164 55.5684 32.1289C55.5527 32.082 55.541 32.0312 55.5332 31.9766C55.5332 31.9219 55.5332 31.8711 55.5332 31.8242C55.5332 31.793 55.5293 31.7617 55.5215 31.7305C55.5137 31.6914 55.5176 31.6562 55.5332 31.625C55.5332 31.6094 55.5371 31.5898 55.5449 31.5664L55.5684 31.4961C55.584 31.4414 55.5918 31.3867 55.5918 31.332C55.5996 31.2695 55.6074 31.207 55.6152 31.1445C55.6309 30.9648 55.6348 30.7812 55.627 30.5938C55.627 30.4062 55.6348 30.2188 55.6504 30.0312C55.627 30 55.6035 29.9766 55.5801 29.9609C55.5566 29.9375 55.541 29.9062 55.5332 29.8672C55.5957 29.7578 55.6621 29.6562 55.7324 29.5625C55.8105 29.4609 55.9121 29.3828 56.0371 29.3281C56.0605 29.4141 56.123 29.457 56.2246 29.457C56.2715 29.457 56.3301 29.4453 56.4004 29.4219C56.4707 29.3984 56.5176 29.3672 56.541 29.3281C56.6738 29.375 56.8066 29.3984 56.9395 29.3984C57.0801 29.3906 57.209 29.4219 57.3262 29.4922C57.3496 29.6094 57.3809 29.7305 57.4199 29.8555C57.459 29.9805 57.5137 30.0938 57.584 30.1953C57.5996 30.2969 57.6152 30.4219 57.6309 30.5703C57.6465 30.7109 57.6621 30.8594 57.6777 31.0156C57.6934 31.1641 57.7168 31.3086 57.748 31.4492C57.7793 31.582 57.8223 31.6875 57.877 31.7656C57.8848 31.9062 57.9082 32.0469 57.9473 32.1875C57.9863 32.3281 58.0293 32.4648 58.0762 32.5977C58.123 32.7227 58.1621 32.8398 58.1934 32.9492C58.2324 33.0586 58.252 33.1484 58.252 33.2188C58.252 33.2812 58.2402 33.3242 58.2168 33.3477C58.2012 33.3633 58.1855 33.3945 58.1699 33.4414C58.2012 33.5273 58.2441 33.6016 58.2988 33.6641C58.3535 33.7188 58.4121 33.7852 58.4746 33.8633C58.5918 34.3086 58.7441 34.7422 58.9316 35.1641C59.1191 35.5859 59.3457 35.9922 59.6113 36.3828C59.6816 36.3906 59.7363 36.4102 59.7754 36.4414C59.8223 36.4727 59.8926 36.4805 59.9863 36.4648V36.5469C59.9863 36.625 60.002 36.6797 60.0332 36.7109C60.1035 36.7578 60.1855 36.7812 60.2793 36.7812C60.3809 36.7812 60.459 36.7539 60.5137 36.6992C60.5762 36.6367 60.6348 36.5664 60.6895 36.4883C60.7441 36.4102 60.7988 36.3359 60.8535 36.2656C60.9082 36.1953 60.9824 36.1484 61.0762 36.125V36.1016C61.0762 36.0391 61.0879 35.9883 61.1113 35.9492C61.1426 35.9023 61.1582 35.8516 61.1582 35.7969C61.2441 35.7344 61.3105 35.6562 61.3574 35.5625C61.4043 35.4688 61.4473 35.375 61.4863 35.2812C61.5254 35.1797 61.5684 35.0859 61.6152 35C61.6699 34.9141 61.7402 34.8438 61.8262 34.7891C61.9355 34.4531 62.0684 34.1406 62.2246 33.8516C62.3809 33.5625 62.5449 33.2695 62.7168 32.9727C62.7168 32.9492 62.7129 32.9258 62.7051 32.9023C62.6973 32.8711 62.6934 32.8438 62.6934 32.8203C62.6934 32.8125 62.7012 32.7773 62.7168 32.7148C62.7559 32.6367 62.791 32.5625 62.8223 32.4922C62.8535 32.4219 62.8809 32.3438 62.9043 32.2578C62.9824 32.0156 63.0527 31.7773 63.1152 31.543C63.1855 31.3086 63.2871 31.0859 63.4199 30.875V30.582C63.5605 30.3008 63.6582 30.0039 63.7129 29.6914C63.7754 29.3789 63.8496 29.0742 63.9355 28.7773C63.9512 28.6914 63.9785 28.6055 64.0176 28.5195C64.0645 28.4258 64.1191 28.3594 64.1816 28.3203C64.1582 28.2734 64.1465 28.2266 64.1465 28.1797C64.1465 28.1172 64.1543 28.0625 64.1699 28.0156C64.1934 27.9609 64.2129 27.9062 64.2285 27.8516C64.2051 27.7969 64.1934 27.7266 64.1934 27.6406C64.1934 27.5312 64.2246 27.4297 64.2871 27.3359C64.3496 27.2344 64.4434 27.168 64.5684 27.1367C64.6465 27.1602 64.7129 27.1992 64.7676 27.2539C64.8223 27.3086 64.873 27.3672 64.9199 27.4297C64.9746 27.4844 65.0293 27.5312 65.084 27.5703C65.1465 27.6016 65.2246 27.6094 65.3184 27.5938C65.3809 27.7109 65.4238 27.8359 65.4473 27.9688C65.4707 28.0938 65.4824 28.2227 65.4824 28.3555C65.4824 28.5352 65.4668 28.7227 65.4355 28.918C65.4043 29.1055 65.3926 29.2969 65.4004 29.4922C65.3379 29.6172 65.291 29.7539 65.2598 29.9023C65.2363 30.043 65.2129 30.1875 65.1895 30.3359C65.166 30.4844 65.1387 30.6289 65.1074 30.7695C65.0762 30.9102 65.0215 31.043 64.9434 31.168C64.9199 31.5195 64.8926 31.8633 64.8613 32.1992C64.8379 32.5352 64.7988 32.8711 64.7441 33.207L64.6387 33.875C64.623 33.9297 64.6074 33.9922 64.5918 34.0625C64.5762 34.125 64.5684 34.1797 64.5684 34.2266C64.5684 34.2734 64.5723 34.3242 64.5801 34.3789C64.5879 34.4258 64.6113 34.4609 64.6504 34.4844C64.5957 34.5625 64.5566 34.6562 64.5332 34.7656C64.5098 34.875 64.4863 34.9922 64.4629 35.1172L64.4043 35.4805C64.3887 35.5977 64.3574 35.7031 64.3105 35.7969V35.9258C64.3105 36.2383 64.2559 36.5586 64.1465 36.8867V36.9453C64.1465 36.9844 64.1426 37.0195 64.1348 37.0508C64.1348 37.0742 64.1348 37.1055 64.1348 37.1445C64.1348 37.1992 64.1504 37.2422 64.1816 37.2734C64.1191 37.4766 64.0605 37.6875 64.0059 37.9062C63.9512 38.1172 63.9121 38.3359 63.8887 38.5625C63.8652 38.8672 63.8613 39.1797 63.877 39.5C63.8926 39.8125 63.8535 40.1172 63.7598 40.4141C63.8066 40.5547 63.8379 40.707 63.8535 40.8711L63.9004 41.3633C63.916 41.5273 63.9395 41.6836 63.9707 41.832C64.0098 41.9883 64.0801 42.1172 64.1816 42.2188C64.1895 42.2344 64.1934 42.2578 64.1934 42.2891C64.1934 42.3516 64.1777 42.3984 64.1465 42.4297C64.1621 42.5078 64.1895 42.5742 64.2285 42.6289C64.2676 42.6836 64.3066 42.7344 64.3457 42.7812C64.3848 42.8359 64.416 42.8945 64.4395 42.957C64.4707 43.0195 64.4863 43.0977 64.4863 43.1914C64.5488 43.2773 64.6465 43.3438 64.7793 43.3906C64.9121 43.4375 65.0449 43.4844 65.1777 43.5312C65.3184 43.5781 65.4395 43.6367 65.541 43.707C65.6426 43.7852 65.6934 43.8945 65.6934 44.0352ZM79.9199 39.0078C79.9199 39.1094 79.8926 39.2031 79.8379 39.2891C79.7832 39.3672 79.7676 39.4609 79.791 39.5703C79.7598 39.625 79.7168 39.668 79.6621 39.6992C79.6152 39.7305 79.5996 39.7891 79.6152 39.875C79.4512 39.9609 79.2988 40.0703 79.1582 40.2031C79.0254 40.3281 78.8809 40.4492 78.7246 40.5664C78.6309 40.6367 78.5488 40.6875 78.4785 40.7188C78.416 40.7422 78.3379 40.7812 78.2441 40.8359L77.9512 41.0234C77.8184 41.0938 77.6816 41.1641 77.541 41.2344C77.4082 41.3047 77.2871 41.3945 77.1777 41.5039C77.0137 41.5117 76.8457 41.5547 76.6738 41.6328C76.502 41.7188 76.3379 41.793 76.1816 41.8555C76.1191 41.8789 76.0566 41.8945 75.9941 41.9023C75.9316 41.918 75.8691 41.9414 75.8066 41.9727L75.6191 42.0547C75.5098 42.1094 75.3809 42.1641 75.2324 42.2188C75.084 42.2812 74.9512 42.3125 74.834 42.3125C74.7637 42.3438 74.7051 42.3984 74.6582 42.4766C74.4004 42.5625 74.1348 42.6289 73.8613 42.6758C73.5879 42.7227 73.3223 42.7969 73.0645 42.8984C72.9785 42.9375 72.8887 42.9883 72.7949 43.0508C72.709 43.1211 72.6152 43.1523 72.5137 43.1445C72.4902 43.1836 72.4746 43.2305 72.4668 43.2852C72.459 43.3398 72.4473 43.3945 72.4316 43.4492H72.3965C72.3652 43.4492 72.3496 43.4336 72.3496 43.4023C72.3574 43.3711 72.3457 43.3555 72.3145 43.3555C72.291 43.3555 72.2754 43.3594 72.2676 43.3672C72.166 43.3906 72.0684 43.4102 71.9746 43.4258C71.8887 43.4414 71.791 43.4492 71.6816 43.4492C71.6191 43.4492 71.5176 43.4414 71.377 43.4258C71.2441 43.4102 71.1465 43.3906 71.084 43.3672C71.0371 43.3438 70.998 43.3008 70.9668 43.2383C70.9355 43.1758 70.9043 43.1094 70.873 43.0391C70.8496 42.9688 70.8262 42.8945 70.8027 42.8164C70.7871 42.7461 70.7715 42.6875 70.7559 42.6406C70.7793 42.5547 70.8184 42.4844 70.873 42.4297C70.9277 42.375 70.9707 42.3047 71.002 42.2188C71.0723 42.2109 71.1426 42.1992 71.2129 42.1836C71.2832 42.168 71.3535 42.1641 71.4238 42.1719C71.666 42.1016 71.9082 42.0312 72.1504 41.9609C72.4004 41.8984 72.6465 41.832 72.8887 41.7617C73.1309 41.6914 73.3691 41.6133 73.6035 41.5273C73.8379 41.4414 74.0645 41.3359 74.2832 41.2109H74.5293C74.6699 41.1328 74.8262 41.0664 74.998 41.0117C75.1699 40.957 75.3105 40.8672 75.4199 40.7422C75.6777 40.6875 75.9473 40.6133 76.2285 40.5195C76.5098 40.4258 76.7441 40.2773 76.9316 40.0742C77.0488 40.0586 77.1504 40.0312 77.2363 39.9922C77.3223 39.9453 77.4043 39.8984 77.4824 39.8516L77.7168 39.6992C77.7949 39.6445 77.8848 39.6016 77.9863 39.5703C78.0488 39.5078 78.1074 39.4414 78.1621 39.3711C78.2168 39.3008 78.2832 39.2422 78.3613 39.1953C78.3379 39.0703 78.2754 38.9766 78.1738 38.9141C78.0723 38.8516 77.9824 38.7773 77.9043 38.6914H77.6465C77.4434 38.5664 77.2246 38.4727 76.9902 38.4102C76.7637 38.3398 76.5371 38.2656 76.3105 38.1875C76.2949 38.1797 76.2754 38.1758 76.252 38.1758C76.1973 38.1758 76.1621 38.1953 76.1465 38.2344C76.1387 38.2734 76.1074 38.2891 76.0527 38.2812C75.9824 38.2344 75.9082 38.207 75.8301 38.1992C75.752 38.1836 75.6699 38.1758 75.584 38.1758C75.4746 38.1758 75.3652 38.1836 75.2559 38.1992C75.1543 38.207 75.0488 38.2109 74.9395 38.2109C74.8848 38.2109 74.8301 38.207 74.7754 38.1992C74.7207 38.1914 74.666 38.1719 74.6113 38.1406H74.459C74.2949 38.1406 74.1309 38.1484 73.9668 38.1641C73.8105 38.1719 73.6543 38.1758 73.498 38.1758C73.4121 38.1758 73.3301 38.1758 73.252 38.1758C73.1738 38.168 73.0957 38.1562 73.0176 38.1406C72.8535 38.2188 72.6777 38.2734 72.4902 38.3047C72.3027 38.3359 72.1074 38.3594 71.9043 38.375C71.709 38.3906 71.5137 38.4062 71.3184 38.4219C71.123 38.4297 70.9355 38.4492 70.7559 38.4805C70.709 38.4727 70.6621 38.4688 70.6152 38.4688C70.5762 38.4609 70.5371 38.457 70.498 38.457C70.459 38.457 70.416 38.4609 70.3691 38.4688C70.3301 38.4688 70.291 38.4727 70.252 38.4805C70.1504 38.3711 70.0254 38.293 69.877 38.2461C69.7363 38.1914 69.5957 38.1562 69.4551 38.1406C69.3457 38.0078 69.2637 37.875 69.209 37.7422C69.1621 37.6016 69.1309 37.4453 69.1152 37.2734H69.1621C69.2168 37.2734 69.2402 37.2461 69.2324 37.1914C69.2324 37.1367 69.252 37.0898 69.291 37.0508C69.3301 37.0039 69.3809 36.9727 69.4434 36.957C69.5137 36.9336 69.5801 36.9102 69.6426 36.8867C69.7051 36.8633 69.7637 36.8359 69.8184 36.8047C69.8809 36.7656 69.9277 36.707 69.959 36.6289H70.1113C70.1426 36.6289 70.1738 36.6328 70.2051 36.6406C70.2441 36.6406 70.2754 36.6523 70.2988 36.6758C70.3301 36.6445 70.3691 36.6172 70.416 36.5938C70.4629 36.5703 70.5059 36.5469 70.5449 36.5234C70.5918 36.5 70.6309 36.4727 70.6621 36.4414C70.6934 36.4102 70.7129 36.3633 70.7207 36.3008C70.7285 36.3242 70.748 36.3359 70.7793 36.3359C70.8105 36.3359 70.8379 36.3281 70.8613 36.3125C70.8926 36.2969 70.9277 36.293 70.9668 36.3008C71.0059 36.1914 71.0723 36.1328 71.166 36.125C71.2598 36.1172 71.3457 36.0898 71.4238 36.043C71.4785 36.0117 71.5293 35.9766 71.5762 35.9375C71.623 35.8906 71.6738 35.8477 71.7285 35.8086L72.4316 35.2695L73.5098 34.4492C73.8691 34.1758 74.2363 33.9219 74.6113 33.6875C74.627 33.6406 74.6504 33.6055 74.6816 33.582C74.7129 33.5586 74.7441 33.5352 74.7754 33.5117C74.8066 33.4805 74.8301 33.4492 74.8457 33.418C74.8691 33.3867 74.877 33.3398 74.8691 33.2773C74.9785 33.2539 75.0605 33.2109 75.1152 33.1484C75.1777 33.0859 75.2324 33.0195 75.2793 32.9492C75.3262 32.8711 75.373 32.7969 75.4199 32.7266C75.4746 32.6484 75.5449 32.5898 75.6309 32.5508C75.623 32.5273 75.6191 32.4922 75.6191 32.4453C75.6191 32.3828 75.623 32.3203 75.6309 32.2578C75.6465 32.1953 75.6777 32.1406 75.7246 32.0938C75.6543 31.9297 75.5332 31.8125 75.3613 31.7422C75.1895 31.6641 75.0254 31.5977 74.8691 31.543H74.834C74.7949 31.543 74.7715 31.5625 74.7637 31.6016C74.7637 31.6328 74.7441 31.6562 74.7051 31.6719C74.5801 31.6406 74.4395 31.625 74.2832 31.625C74.127 31.625 73.9707 31.6367 73.8145 31.6602C73.666 31.6836 73.5137 31.6875 73.3574 31.6719C73.334 31.7031 73.3066 31.7344 73.2754 31.7656C73.252 31.7969 73.2207 31.8242 73.1816 31.8477C73.0176 31.8555 72.8535 31.8789 72.6895 31.918L72.1973 32.0352L71.9277 32.0938C71.8887 32.1094 71.8613 32.1367 71.8457 32.1758C71.8301 32.2148 71.8184 32.2578 71.8105 32.3047C71.7637 32.2969 71.7324 32.2773 71.7168 32.2461C71.709 32.2148 71.6816 32.1914 71.6348 32.1758C71.4551 32.2852 71.2598 32.375 71.0488 32.4453C70.8457 32.5156 70.6621 32.625 70.498 32.7734C70.4434 32.7109 70.3652 32.6797 70.2637 32.6797C70.1777 32.6797 70.084 32.707 69.9824 32.7617C69.8809 32.8164 69.8184 32.8867 69.7949 32.9727C69.7168 32.957 69.6582 32.9492 69.6191 32.9492C69.5332 32.9492 69.459 32.9727 69.3965 33.0195C69.3418 33.0664 69.2871 33.1211 69.2324 33.1836C69.1777 33.2383 69.1191 33.293 69.0566 33.3477C68.9941 33.4023 68.916 33.4336 68.8223 33.4414C68.8223 33.4805 68.8223 33.5234 68.8223 33.5703C68.8301 33.6094 68.834 33.6523 68.834 33.6992C68.834 34.0508 68.8145 34.4023 68.7754 34.7539C68.7363 35.0977 68.7168 35.4453 68.7168 35.7969C68.7168 35.875 68.7207 35.9531 68.7285 36.0312C68.7363 36.1016 68.7402 36.1797 68.7402 36.2656C68.7402 36.2891 68.7207 36.3398 68.6816 36.418C68.6504 36.4961 68.627 36.5547 68.6113 36.5938C68.6426 36.6797 68.6543 36.7656 68.6465 36.8516C68.6465 36.9375 68.666 37.0195 68.7051 37.0977C68.6348 37.1602 68.5996 37.2461 68.5996 37.3555C68.5996 37.4023 68.5996 37.4492 68.5996 37.4961C68.6074 37.543 68.6113 37.5898 68.6113 37.6367V37.7773C68.5879 37.9336 68.5723 38.0938 68.5645 38.2578C68.5566 38.4141 68.5527 38.5703 68.5527 38.7266C68.5527 38.7969 68.5527 38.918 68.5527 39.0898C68.5605 39.2539 68.5723 39.4414 68.5879 39.6523C68.6035 39.8555 68.627 40.0664 68.6582 40.2852C68.6895 40.5039 68.7285 40.707 68.7754 40.8945C68.8301 41.0742 68.8965 41.2227 68.9746 41.3398C69.0527 41.457 69.1465 41.5156 69.2559 41.5156C69.2793 41.5156 69.3066 41.5117 69.3379 41.5039C69.377 41.4961 69.3965 41.4766 69.3965 41.4453C69.3965 41.4141 69.3887 41.3867 69.373 41.3633C69.3652 41.3398 69.3613 41.3125 69.3613 41.2812L69.373 41.2578C69.4355 41.2891 69.502 41.3086 69.5723 41.3164C69.6504 41.3242 69.7285 41.332 69.8066 41.3398C69.8848 41.3477 69.959 41.3594 70.0293 41.375C70.0996 41.3984 70.1621 41.4414 70.2168 41.5039C70.1855 41.5664 70.1699 41.6328 70.1699 41.7031C70.1699 41.7969 70.1934 41.8828 70.2402 41.9609C70.2871 42.0469 70.3184 42.1328 70.334 42.2188C70.1855 42.2656 70.0488 42.3164 69.9238 42.3711C69.8066 42.4336 69.6895 42.4883 69.5723 42.5352C69.4551 42.5898 69.3301 42.6367 69.1973 42.6758C69.0645 42.7227 68.9121 42.7539 68.7402 42.7695C68.6309 42.6992 68.5371 42.6367 68.459 42.582C68.3809 42.5273 68.2754 42.4922 68.1426 42.4766C67.9395 42.2031 67.7715 41.8945 67.6387 41.5508C67.5059 41.2148 67.4004 40.8633 67.3223 40.4961C67.252 40.1289 67.2012 39.7617 67.1699 39.3945C67.1465 39.0195 67.1348 38.668 67.1348 38.3398C67.1348 37.9805 67.1465 37.625 67.1699 37.2734C67.2012 36.9141 67.2402 36.5547 67.2871 36.1953C67.3027 36.0859 67.3184 35.9766 67.334 35.8672C67.3496 35.75 67.3652 35.6367 67.3809 35.5273C67.3965 35.4883 67.4082 35.4453 67.416 35.3984C67.4316 35.3438 67.4395 35.2969 67.4395 35.2578C67.4395 35.125 67.4355 34.9922 67.4277 34.8594C67.4199 34.7266 67.416 34.5977 67.416 34.4727C67.416 34.2773 67.4277 34.0781 67.4512 33.875C67.459 33.8359 67.4707 33.7852 67.4863 33.7227C67.5098 33.6602 67.5215 33.6055 67.5215 33.5586C67.5215 33.4961 67.5059 33.4531 67.4746 33.4297C67.4434 33.4062 67.416 33.3672 67.3926 33.3125C67.416 33.2344 67.4355 33.1602 67.4512 33.0898C67.4668 33.0117 67.4746 32.9336 67.4746 32.8555C67.4746 32.707 67.4473 32.5781 67.3926 32.4688C67.4316 32.2656 67.4902 32.0664 67.5684 31.8711C67.6465 31.6758 67.7832 31.5273 67.9785 31.4258C68.1348 31.4336 68.291 31.4492 68.4473 31.4727C68.6113 31.4961 68.752 31.5625 68.8691 31.6719C68.9238 31.6406 68.9863 31.6211 69.0566 31.6133L69.2793 31.5898C69.3574 31.582 69.4277 31.5703 69.4902 31.5547C69.5527 31.5312 69.6074 31.4883 69.6543 31.4258C69.8105 31.3945 69.9785 31.3516 70.1582 31.2969C70.3379 31.2344 70.4941 31.1641 70.627 31.0859H70.8848C70.9395 31.0469 71.002 31.0195 71.0723 31.0039L71.2949 30.9453C71.373 30.9219 71.4434 30.8984 71.5059 30.875C71.5762 30.8516 71.6309 30.8125 71.6699 30.7578H71.7168C71.8965 30.7578 72.0723 30.7188 72.2441 30.6406C72.416 30.5625 72.584 30.4922 72.748 30.4297C72.7871 30.4141 72.8457 30.3867 72.9238 30.3477C73.0098 30.3086 73.0684 30.2891 73.0996 30.2891C73.209 30.2734 73.3184 30.2656 73.4277 30.2656C73.5371 30.2578 73.6465 30.2422 73.7559 30.2188C74.0059 30.1797 74.252 30.1367 74.4941 30.0898C74.7441 30.0352 74.9941 30.0078 75.2441 30.0078C75.3301 30.0078 75.4082 30.0117 75.4785 30.0195C75.5566 30.0195 75.6387 30.0234 75.7246 30.0312C75.7324 30.0625 75.752 30.0898 75.7832 30.1133C75.8145 30.1289 75.8418 30.1445 75.8652 30.1602C75.8965 30.1758 75.9238 30.1992 75.9473 30.2305C75.9707 30.2539 75.9785 30.2891 75.9707 30.3359C75.9863 30.3516 76.002 30.3594 76.0176 30.3594C76.041 30.3594 76.0605 30.3477 76.0762 30.3242C76.0996 30.3008 76.1309 30.2891 76.1699 30.2891H76.2285C76.3301 30.3984 76.4277 30.5039 76.5215 30.6055C76.623 30.6992 76.748 30.7773 76.8965 30.8398C76.959 31.0742 77.0332 31.3047 77.1191 31.5312C77.2051 31.7578 77.248 32 77.248 32.2578C77.248 32.4141 77.2246 32.5664 77.1777 32.7148C77.0684 32.7695 76.9902 32.8555 76.9434 32.9727C76.8965 33.0898 76.8535 33.2031 76.8145 33.3125C76.5957 33.4219 76.4121 33.5664 76.2637 33.7461C76.1152 33.9258 75.9629 34.1055 75.8066 34.2852H75.6191C75.5879 34.2852 75.5645 34.2969 75.5488 34.3203L75.4434 34.4375C75.373 34.5 75.2949 34.5625 75.209 34.625C75.1309 34.6875 75.0723 34.7695 75.0332 34.8711C74.791 35.0039 74.5566 35.1523 74.3301 35.3164C74.1113 35.4805 73.9004 35.6523 73.6973 35.832C73.6113 35.9023 73.5254 35.9844 73.4395 36.0781C73.3535 36.1641 73.2676 36.2383 73.1816 36.3008C73.1348 36.3398 73.0801 36.375 73.0176 36.4062C72.9629 36.4297 72.9121 36.4609 72.8652 36.5C72.7637 36.5781 72.6699 36.6602 72.584 36.7461C72.498 36.8242 72.4082 36.8984 72.3145 36.9688C72.666 36.9531 73.0215 36.9453 73.3809 36.9453C73.7402 36.9375 74.0957 36.9297 74.4473 36.9219C74.627 36.9219 74.8027 36.918 74.9746 36.9102C75.1465 36.8945 75.3223 36.8867 75.502 36.8867C75.5332 36.8867 75.5605 36.8945 75.584 36.9102C75.6074 36.918 75.6348 36.9258 75.666 36.9336C75.7988 36.957 75.916 36.9844 76.0176 37.0156C76.3926 37.0859 76.7676 37.1484 77.1426 37.2031C77.5176 37.2578 77.8848 37.3477 78.2441 37.4727C78.3457 37.5117 78.4199 37.5547 78.4668 37.6016C78.5215 37.6484 78.6152 37.6602 78.748 37.6367C78.8574 37.7461 78.9746 37.832 79.0996 37.8945C79.2324 37.957 79.3652 38.0117 79.498 38.0586C79.5996 38.2148 79.6934 38.3633 79.7793 38.5039C79.873 38.6445 79.9199 38.8125 79.9199 39.0078ZM93.3027 28.1914C93.3027 28.2617 93.2988 28.332 93.291 28.4023C93.291 28.4727 93.2871 28.5391 93.2793 28.6016C93.2559 28.6406 93.209 28.6562 93.1387 28.6484C93.0762 28.6406 93.0254 28.6367 92.9863 28.6367C92.9473 28.6367 92.9121 28.6445 92.8809 28.6602C92.8574 28.668 92.8457 28.6914 92.8457 28.7305C92.8457 28.7773 92.8496 28.8086 92.8574 28.8242C92.7949 28.8164 92.7285 28.8086 92.6582 28.8008C92.5879 28.793 92.5254 28.7695 92.4707 28.7305C92.3613 28.7539 92.2559 28.7852 92.1543 28.8242C92.0605 28.8633 91.9668 28.9062 91.873 28.9531C91.7793 29 91.6816 29.043 91.5801 29.082C91.4785 29.1211 91.373 29.1445 91.2637 29.1523C91.1934 29.2305 91.1035 29.2891 90.9941 29.3281C90.8848 29.3672 90.7715 29.4023 90.6543 29.4336C90.5371 29.4648 90.4277 29.5039 90.3262 29.5508C90.2246 29.5898 90.1426 29.6523 90.0801 29.7383C89.9082 29.7539 89.7441 29.7969 89.5879 29.8672C89.4316 29.9375 89.2754 30.0117 89.1191 30.0898C88.9707 30.168 88.8184 30.2422 88.6621 30.3125C88.5059 30.3828 88.3379 30.4297 88.1582 30.4531C88.1113 30.5 88.0527 30.5391 87.9824 30.5703C87.9199 30.6016 87.8535 30.6328 87.7832 30.6641C87.7129 30.6875 87.6465 30.7148 87.584 30.7461C87.5215 30.7773 87.4707 30.8203 87.4316 30.875H87.4082C87.377 30.875 87.3535 30.8672 87.3379 30.8516C87.3223 30.8359 87.2988 30.8281 87.2676 30.8281C87.2441 30.8281 87.2285 30.832 87.2207 30.8398C87.0332 30.9258 86.8457 31.0156 86.6582 31.1094C86.4707 31.2031 86.2754 31.293 86.0723 31.3789C85.6738 31.543 85.2715 31.7031 84.8652 31.8594C84.459 32.0156 84.0684 32.207 83.6934 32.4336C83.6074 32.7461 83.5371 33.0664 83.4824 33.3945C83.4277 33.7148 83.3301 34.0234 83.1895 34.3203V34.8711C83.1113 35.0195 83.0605 35.1836 83.0371 35.3633C83.0137 35.543 83.002 35.7148 83.002 35.8789C83.002 35.9414 83.002 36 83.002 36.0547C83.0098 36.1016 83.0137 36.1523 83.0137 36.207C83.2402 36.1445 83.459 36.0742 83.6699 35.9961C83.8887 35.918 84.1074 35.8477 84.3262 35.7852C84.4355 35.7461 84.5449 35.7188 84.6543 35.7031C84.7715 35.6875 84.8848 35.6602 84.9941 35.6211C85.0801 35.5977 85.1699 35.5664 85.2637 35.5273C85.3574 35.4805 85.4473 35.4375 85.5332 35.3984C85.7676 35.2969 86.0059 35.207 86.248 35.1289C86.498 35.0508 86.752 34.9922 87.0098 34.9531C87.0879 34.8906 87.1738 34.832 87.2676 34.7773C87.3613 34.7227 87.4551 34.6953 87.5488 34.6953C87.6191 34.6953 87.6777 34.707 87.7246 34.7305C87.8574 34.6523 88.0137 34.582 88.1934 34.5195C88.373 34.457 88.541 34.4336 88.6973 34.4492C88.7363 34.3945 88.7832 34.3594 88.8379 34.3438C88.8926 34.3203 88.9512 34.3086 89.0137 34.3086C89.0449 34.3086 89.0723 34.3125 89.0957 34.3203C89.127 34.3203 89.1621 34.3203 89.2012 34.3203C89.2793 34.2656 89.3652 34.2266 89.459 34.2031C89.5527 34.1797 89.6465 34.1602 89.7402 34.1445C89.834 34.1289 89.9238 34.1094 90.0098 34.0859C90.1035 34.0547 90.1855 34.0078 90.2559 33.9453C90.3652 33.9531 90.4512 33.9844 90.5137 34.0391C90.584 34.0938 90.6426 34.1602 90.6895 34.2383C90.7363 34.3164 90.7754 34.3984 90.8066 34.4844C90.8379 34.5703 90.877 34.6523 90.9238 34.7305C90.9082 34.793 90.8848 34.8438 90.8535 34.8828C90.8223 34.9141 90.7871 34.9453 90.748 34.9766C90.709 35.0078 90.6738 35.0391 90.6426 35.0703C90.6113 35.1016 90.5918 35.1445 90.584 35.1992C90.3105 35.1992 90.0449 35.2383 89.7871 35.3164C89.5371 35.3945 89.2871 35.4844 89.0371 35.5859C88.7949 35.6875 88.5449 35.7852 88.2871 35.8789C88.0371 35.9648 87.7793 36.0195 87.5137 36.043C87.4746 36.082 87.4238 36.1133 87.3613 36.1367L87.1855 36.1953C87.1309 36.2109 87.0801 36.2344 87.0332 36.2656C86.9863 36.2891 86.9512 36.3281 86.9277 36.3828C86.8809 36.3594 86.8301 36.3477 86.7754 36.3477C86.6426 36.3477 86.5137 36.3828 86.3887 36.4531C86.2637 36.5234 86.123 36.5586 85.9668 36.5586C85.9043 36.5586 85.8613 36.5547 85.8379 36.5469C85.7988 36.6172 85.7402 36.668 85.6621 36.6992C85.5918 36.7305 85.5137 36.7578 85.4277 36.7812C85.3496 36.7969 85.2715 36.8203 85.1934 36.8516C85.123 36.8828 85.0684 36.9375 85.0293 37.0156C85.0059 37.0078 84.9785 37.0039 84.9473 37.0039H84.877C84.752 37.0039 84.6074 37.0273 84.4434 37.0742C84.2871 37.1133 84.1738 37.1914 84.1035 37.3086C84.041 37.293 83.9863 37.2852 83.9395 37.2852C83.8301 37.2852 83.7324 37.3086 83.6465 37.3555C83.5605 37.3945 83.4746 37.4414 83.3887 37.4961L83.1309 37.6602C83.0449 37.7148 82.9512 37.7539 82.8496 37.7773C82.6465 38.0664 82.5059 38.3984 82.4277 38.7734C82.3496 39.1484 82.291 39.5391 82.252 39.9453C82.2207 40.3516 82.1895 40.7539 82.1582 41.1523C82.127 41.5586 82.0645 41.9297 81.9707 42.2656C82.0176 42.3906 82.0527 42.5234 82.0762 42.6641C82.0996 42.8047 82.1191 42.9453 82.1348 43.0859C82.1504 43.2344 82.166 43.3828 82.1816 43.5312C82.1973 43.6797 82.2246 43.8203 82.2637 43.9531C82.3027 44.1172 82.377 44.2617 82.4863 44.3867C82.6035 44.5195 82.6855 44.668 82.7324 44.832C82.7715 44.8398 82.8105 44.8438 82.8496 44.8438C82.8965 44.8516 82.9434 44.8555 82.9902 44.8555C83.2715 44.8555 83.5176 44.8008 83.7285 44.6914C83.9473 44.582 84.1504 44.4453 84.3379 44.2812C84.5254 44.125 84.7051 43.9531 84.877 43.7656C85.0566 43.5859 85.248 43.4258 85.4512 43.2852H85.6738C85.7285 43.2227 85.7754 43.1562 85.8145 43.0859C85.8535 43.0156 85.8965 42.9492 85.9434 42.8867C85.9902 42.8242 86.0449 42.7695 86.1074 42.7227C86.1699 42.6836 86.248 42.6562 86.3418 42.6406C86.3652 42.5234 86.4199 42.4336 86.5059 42.3711C86.5918 42.3086 86.6504 42.2148 86.6816 42.0898C86.6973 42.0977 86.7168 42.1016 86.7402 42.1016C86.8027 42.1016 86.8496 42.0859 86.8809 42.0547L87.0566 41.8906C87.1191 41.8281 87.1855 41.7656 87.2559 41.7031C87.334 41.6484 87.4082 41.5938 87.4785 41.5391C87.7051 41.375 87.9316 41.2109 88.1582 41.0469C88.3848 40.8906 88.5918 40.707 88.7793 40.4961C88.7871 40.5039 88.7988 40.5078 88.8145 40.5078C88.877 40.5078 88.9199 40.4883 88.9434 40.4492C88.9668 40.4102 89.0215 40.3984 89.1074 40.4141C89.1543 40.3438 89.1973 40.2734 89.2363 40.2031C89.2754 40.125 89.3066 40.043 89.3301 39.957L89.7051 40.0039C89.8301 40.0195 89.9551 40.0273 90.0801 40.0273C90.1191 40.0273 90.1543 40.0273 90.1855 40.0273C90.2246 40.0195 90.2598 40.0078 90.291 39.9922C90.3848 40.1406 90.4355 40.3008 90.4434 40.4727C90.4512 40.6367 90.4707 40.8008 90.502 40.9648C90.4863 40.9648 90.4746 40.9648 90.4668 40.9648C90.4668 40.957 90.459 40.9531 90.4434 40.9531C90.4043 40.9531 90.3652 40.9688 90.3262 41C90.2949 41.0234 90.2598 41.0547 90.2207 41.0938L90.1035 41.2109C90.0645 41.25 90.0293 41.2812 89.998 41.3047C89.9121 41.3594 89.8223 41.4062 89.7285 41.4453C89.6348 41.4922 89.5449 41.5391 89.459 41.5859C89.373 41.6328 89.291 41.6875 89.2129 41.75C89.1348 41.8203 89.0723 41.9062 89.0254 42.0078C88.8691 42.0703 88.7168 42.1367 88.5684 42.207C88.4277 42.2773 88.291 42.3516 88.1582 42.4297C88.1191 42.4688 88.084 42.5078 88.0527 42.5469C88.0215 42.5859 87.998 42.6289 87.9824 42.6758C87.7715 42.7461 87.5957 42.8516 87.4551 42.9922C87.3223 43.1328 87.1855 43.2852 87.0449 43.4492L87.0332 43.4375C86.9785 43.4375 86.9434 43.457 86.9277 43.4961C86.9199 43.5352 86.877 43.5469 86.7988 43.5312C86.6504 43.6953 86.4941 43.8477 86.3301 43.9883C86.166 44.1289 85.998 44.2695 85.8262 44.4102C85.6543 44.5508 85.4824 44.6914 85.3105 44.832C85.1387 44.9805 84.9785 45.1367 84.8301 45.3008C84.7285 45.332 84.6309 45.3711 84.5371 45.418C84.4434 45.4648 84.373 45.5352 84.3262 45.6289H84.291C84.2051 45.6289 84.1426 45.6484 84.1035 45.6875C84.0723 45.7266 84.0332 45.7773 83.9863 45.8398C83.8223 45.8789 83.6543 45.9219 83.4824 45.9688C83.3105 46.0156 83.1348 46.0391 82.9551 46.0391C82.8301 46.0391 82.709 46.0156 82.5918 45.9688C82.4824 45.9219 82.373 45.8594 82.2637 45.7812C82.1621 45.7109 82.0645 45.6328 81.9707 45.5469C81.8848 45.4609 81.8027 45.3789 81.7246 45.3008C81.6777 45.1445 81.6152 44.9805 81.5371 44.8086C81.4668 44.6445 81.4316 44.4844 81.4316 44.3281C81.4316 44.2891 81.4355 44.25 81.4434 44.2109C81.459 44.1797 81.4668 44.1484 81.4668 44.1172C81.4668 44.0625 81.4473 44.0391 81.4082 44.0469C81.377 44.0547 81.3535 44.0352 81.3379 43.9883C81.3223 43.9102 81.3105 43.8203 81.3027 43.7188C81.3027 43.625 81.2949 43.5352 81.2793 43.4492C81.2559 43.2695 81.2246 43.0859 81.1855 42.8984C81.1543 42.7109 81.1191 42.5273 81.0801 42.3477C81.1113 42.332 81.1348 42.3047 81.1504 42.2656C81.1738 42.2344 81.1973 42.2031 81.2207 42.1719C81.1973 42.1094 81.1738 42.0391 81.1504 41.9609C81.1348 41.8906 81.127 41.8164 81.127 41.7383C81.127 41.582 81.1855 41.4648 81.3027 41.3867C81.3027 41.332 81.2871 41.2891 81.2559 41.2578C81.2324 41.2344 81.2207 41.1914 81.2207 41.1289C81.2207 41.1133 81.2246 41.0703 81.2324 41C81.248 40.9219 81.2637 40.8359 81.2793 40.7422C81.3027 40.6484 81.3223 40.5586 81.3379 40.4727C81.3535 40.3867 81.3652 40.3281 81.373 40.2969C81.4277 39.9375 81.4746 39.5859 81.5137 39.2422C81.5527 38.8906 81.6074 38.5391 81.6777 38.1875C81.5996 38.125 81.498 38.0781 81.373 38.0469C81.2559 38.0078 81.1738 37.957 81.127 37.8945C81.0879 37.8398 81.0566 37.7695 81.0332 37.6836C81.0098 37.5977 80.998 37.5234 80.998 37.4609C80.998 37.2344 81.0879 37.0547 81.2676 36.9219C81.4473 36.7812 81.6387 36.6992 81.8418 36.6758C81.9434 36.4023 82.0176 36.125 82.0645 35.8438C82.1191 35.5547 82.1621 35.2656 82.1934 34.9766L82.2871 34.0977C82.3184 33.8008 82.3652 33.5078 82.4277 33.2188H82.3574C82.2012 33.2188 82.0488 33.2422 81.9004 33.2891C81.752 33.3359 81.5996 33.3594 81.4434 33.3594H81.4199C81.1934 33.1797 81.0801 32.9648 81.0801 32.7148C81.0801 32.5664 81.1113 32.418 81.1738 32.2695C81.2988 32.2227 81.4121 32.1602 81.5137 32.082C81.6152 32.0039 81.7168 31.9258 81.8184 31.8477C81.9277 31.7617 82.0371 31.6875 82.1465 31.625C82.2559 31.5625 82.377 31.5234 82.5098 31.5078C82.5254 31.2812 82.5645 31.0547 82.627 30.8281C82.6895 30.6016 82.7207 30.375 82.7207 30.1484C82.7207 30.1016 82.7168 30.0547 82.709 30.0078C82.709 29.9609 82.7012 29.9141 82.6855 29.8672C82.7402 29.7969 82.7754 29.7227 82.791 29.6445C82.8145 29.5664 82.8262 29.4844 82.8262 29.3984C82.8262 29.3047 82.8184 29.2148 82.8027 29.1289C82.7949 29.0352 82.7832 28.9453 82.7676 28.8594C82.8379 28.8281 82.8926 28.7969 82.9316 28.7656C82.9707 28.7266 83.0059 28.6914 83.0371 28.6602C83.0762 28.6289 83.123 28.6016 83.1777 28.5781C83.2324 28.5547 83.3105 28.543 83.4121 28.543C83.5605 28.543 83.6855 28.5742 83.7871 28.6367C83.8965 28.6914 83.9902 28.7656 84.0684 28.8594C84.1465 28.9531 84.2129 29.0586 84.2676 29.1758C84.3301 29.293 84.3887 29.4102 84.4434 29.5273C84.4277 29.6133 84.3926 29.6758 84.3379 29.7148C84.2832 29.7539 84.2363 29.8047 84.1973 29.8672C84.2129 29.9922 84.2285 30.1133 84.2441 30.2305C84.2598 30.3398 84.2598 30.457 84.2441 30.582C84.3223 30.6211 84.3965 30.6406 84.4668 30.6406C84.584 30.6406 84.6895 30.6094 84.7832 30.5469C84.8848 30.4844 84.9551 30.3984 84.9941 30.2891H85.0176C85.041 30.2891 85.0605 30.2969 85.0762 30.3125C85.0996 30.3281 85.127 30.3359 85.1582 30.3359H85.2051C85.291 30.2578 85.3848 30.1992 85.4863 30.1602C85.5879 30.1133 85.6934 30.0703 85.8027 30.0312C85.9121 29.9922 86.0176 29.9531 86.1191 29.9141C86.2285 29.8672 86.3301 29.8086 86.4238 29.7383C86.4707 29.7617 86.5215 29.7734 86.5762 29.7734C86.6543 29.7734 86.7285 29.7578 86.7988 29.7266C86.877 29.6953 86.9512 29.6641 87.0215 29.6328C87.0918 29.5938 87.166 29.5586 87.2441 29.5273C87.3301 29.4961 87.4199 29.4805 87.5137 29.4805C87.5293 29.4805 87.5488 29.4844 87.5723 29.4922C87.5957 29.4922 87.6152 29.4922 87.6309 29.4922C87.6855 29.4922 87.7168 29.4727 87.7246 29.4336C87.7324 29.3945 87.7324 29.3594 87.7246 29.3281C87.9746 29.2656 88.1895 29.1953 88.3691 29.1172C88.5566 29.0312 88.7637 28.9336 88.9902 28.8242C88.9902 28.8164 88.998 28.8125 89.0137 28.8125C89.0371 28.8125 89.0527 28.8242 89.0605 28.8477C89.0684 28.8711 89.0723 28.8906 89.0723 28.9062C89.1191 28.8828 89.1426 28.8438 89.1426 28.7891C89.1504 28.7344 89.1699 28.6875 89.2012 28.6484C89.2324 28.6562 89.2754 28.6602 89.3301 28.6602C89.4004 28.6602 89.4707 28.6445 89.541 28.6133C89.6191 28.582 89.6934 28.5469 89.7637 28.5078C89.834 28.4688 89.9043 28.4336 89.9746 28.4023C90.0449 28.3711 90.1152 28.3555 90.1855 28.3555C90.248 28.3555 90.2988 28.3711 90.3379 28.4023C90.3848 28.3789 90.4316 28.3477 90.4785 28.3086C90.5254 28.2617 90.5762 28.2383 90.6309 28.2383C90.6465 28.2383 90.6582 28.2422 90.666 28.25C90.6816 28.2578 90.6973 28.2656 90.7129 28.2734C90.752 28.2344 90.7871 28.2031 90.8184 28.1797C90.8574 28.1562 90.877 28.1172 90.877 28.0625C91.166 28.0312 91.4316 27.9688 91.6738 27.875C91.9238 27.7734 92.1621 27.6406 92.3887 27.4766C92.4746 27.4922 92.5566 27.5117 92.6348 27.5352C92.7207 27.5508 92.8066 27.5586 92.8926 27.5586C92.9395 27.6445 92.9824 27.7305 93.0215 27.8164C93.0605 27.9023 93.1465 27.9414 93.2793 27.9336C93.2871 27.9727 93.291 28.0156 93.291 28.0625C93.2988 28.1094 93.3027 28.1523 93.3027 28.1914ZM106.006 41.4805C105.99 41.6367 105.936 41.7578 105.842 41.8438C105.748 41.9375 105.627 41.9844 105.479 41.9844C105.4 41.9844 105.326 41.9727 105.256 41.9492C105.107 42.0664 104.932 42.1562 104.729 42.2188C104.525 42.2812 104.334 42.3438 104.154 42.4062C103.936 42.3984 103.721 42.3789 103.51 42.3477C103.299 42.3164 103.08 42.3086 102.854 42.3242C102.775 42.2695 102.693 42.2344 102.607 42.2188C102.521 42.2031 102.432 42.1914 102.338 42.1836C102.252 42.1836 102.166 42.1719 102.08 42.1484C102.002 42.125 101.924 42.0703 101.846 41.9844H101.26C101.205 41.9844 101.123 41.957 101.014 41.9023C100.912 41.8555 100.795 41.8047 100.662 41.75C100.537 41.6953 100.4 41.6445 100.252 41.5977C100.111 41.5508 99.9785 41.5273 99.8535 41.5273H99.7832C99.6973 41.457 99.5957 41.4023 99.4785 41.3633C99.3691 41.332 99.2559 41.3008 99.1387 41.2695C99.0215 41.2461 98.9082 41.2188 98.7988 41.1875C98.6895 41.1562 98.5957 41.1133 98.5176 41.0586C98.4395 41.0039 98.3496 40.9492 98.248 40.8945C98.1465 40.832 98.041 40.8047 97.9316 40.8125C97.7832 40.7266 97.627 40.6523 97.4629 40.5898C97.3066 40.5273 97.1465 40.4688 96.9824 40.4141L96.502 40.2383C96.3457 40.1758 96.1895 40.1016 96.0332 40.0156C96.0098 40.0234 95.9824 40.0234 95.9512 40.0156C95.9199 40.0078 95.8926 40.0039 95.8691 40.0039C95.8223 40.0039 95.7949 40.0195 95.7871 40.0508C95.7324 39.9961 95.6699 39.9492 95.5996 39.9102C95.5371 39.8711 95.4746 39.8242 95.4121 39.7695C95.3809 39.7773 95.3496 39.7852 95.3184 39.793C95.2949 39.793 95.2637 39.793 95.2246 39.793C95.1543 39.793 95.084 39.7852 95.0137 39.7695C94.9512 39.7539 94.8887 39.7344 94.8262 39.7109C94.7559 39.8672 94.709 40.043 94.6855 40.2383C94.6621 40.4336 94.6426 40.6367 94.627 40.8477C94.6191 41.0508 94.6074 41.2539 94.5918 41.457C94.5762 41.668 94.541 41.8594 94.4863 42.0312C94.502 42.0938 94.5098 42.1562 94.5098 42.2188V42.418C94.5098 42.5508 94.5293 42.6562 94.5684 42.7344C94.5527 42.8047 94.5371 42.8711 94.5215 42.9336C94.5137 42.9961 94.502 43.0586 94.4863 43.1211C94.4941 43.207 94.498 43.2852 94.498 43.3555C94.5059 43.4336 94.5098 43.5156 94.5098 43.6016V43.8008C94.5098 43.8711 94.502 43.9414 94.4863 44.0117C94.4082 44.0586 94.3301 44.1016 94.252 44.1406C94.1738 44.1875 94.0957 44.2422 94.0176 44.3047C93.9629 44.2031 93.8691 44.1445 93.7363 44.1289C93.7051 44.168 93.6816 44.2188 93.666 44.2812C93.6582 44.3516 93.623 44.3867 93.5605 44.3867C93.4512 44.3008 93.3613 44.2305 93.291 44.1758C93.2207 44.1211 93.1426 44.0391 93.0566 43.9297C93.0488 43.9141 93.0449 43.8945 93.0449 43.8711C93.0449 43.832 93.0527 43.7969 93.0684 43.7656C93.084 43.7344 93.0918 43.7031 93.0918 43.6719C93.0918 43.5781 93.0801 43.4961 93.0566 43.4258C93.041 43.3242 93.0293 43.2227 93.0215 43.1211C93.0137 43.0273 93.0098 42.9336 93.0098 42.8398C93.0098 42.707 93.0176 42.5781 93.0332 42.4531C93.0566 42.3281 93.0957 42.1992 93.1504 42.0664C93.2363 41.8398 93.2949 41.6016 93.3262 41.3516C93.3652 41.1016 93.3926 40.8516 93.4082 40.6016C93.4238 40.3438 93.4316 40.0859 93.4316 39.8281C93.4395 39.5703 93.4551 39.3242 93.4785 39.0898C93.4238 38.9648 93.3574 38.8672 93.2793 38.7969C93.209 38.7188 93.1738 38.5977 93.1738 38.4336C93.1738 38.2852 93.2207 38.1719 93.3145 38.0938C93.4082 38.0078 93.4902 37.9062 93.5605 37.7891C93.5449 37.7422 93.5566 37.7109 93.5957 37.6953L93.7363 36.4648C93.7441 36.3789 93.7559 36.2852 93.7715 36.1836C93.7949 36.082 93.8105 35.9883 93.8184 35.9023C93.834 35.7227 93.8418 35.5469 93.8418 35.375C93.8418 35.2031 93.8496 35.0312 93.8652 34.8594C93.9043 34.4766 93.9395 34.0977 93.9707 33.7227C94.0098 33.3477 94.0293 32.9727 94.0293 32.5977C94.0293 32.418 94.0215 32.2383 94.0059 32.0586C93.998 31.8789 93.9746 31.6992 93.9355 31.5195C93.8027 31.5586 93.6543 31.6016 93.4902 31.6484C93.334 31.6875 93.2012 31.7578 93.0918 31.8594H92.998C92.7949 31.8594 92.6035 31.8984 92.4238 31.9766C92.252 32.0547 92.0762 32.1289 91.8965 32.1992C91.8184 32.2383 91.7402 32.2656 91.6621 32.2812C91.584 32.2891 91.502 32.3047 91.416 32.3281C91.377 32.3359 91.334 32.3594 91.2871 32.3984C91.2402 32.4375 91.1973 32.4648 91.1582 32.4805L90.959 32.5273C90.9043 32.543 90.8809 32.5781 90.8887 32.6328C90.8965 32.6875 90.877 32.7227 90.8301 32.7383C90.791 32.7773 90.7363 32.7969 90.666 32.7969C90.5957 32.7891 90.541 32.7852 90.502 32.7852H90.4551C90.2598 32.9258 90.0723 33.0469 89.8926 33.1484C89.7051 33.2422 89.4863 33.3047 89.2363 33.3359L88.9785 33.5C88.8926 33.5547 88.7949 33.582 88.6855 33.582C88.5996 33.582 88.5293 33.5664 88.4746 33.5352C88.4121 33.4414 88.3652 33.3359 88.334 33.2188C88.2949 33.1016 88.2324 33 88.1465 32.9141C88.1855 32.875 88.2129 32.8242 88.2285 32.7617C88.2363 32.6914 88.248 32.6289 88.2637 32.5742C88.498 32.4727 88.7363 32.375 88.9785 32.2812C89.2129 32.1875 89.4395 32.0742 89.6582 31.9414C89.6816 31.9492 89.7168 31.9531 89.7637 31.9531C89.8418 31.9531 89.9121 31.9414 89.9746 31.918C90.0371 31.8945 90.0996 31.8672 90.1621 31.8359C90.2246 31.8047 90.2871 31.7773 90.3496 31.7539C90.4121 31.7305 90.4863 31.7227 90.5723 31.7305C90.8379 31.582 91.1191 31.4609 91.416 31.3672C91.7129 31.2734 91.9941 31.1445 92.2598 30.9805C92.2988 30.9805 92.3301 30.9883 92.3535 31.0039C92.3848 31.0195 92.416 31.0273 92.4473 31.0273C92.4785 31.0273 92.498 31.0234 92.5059 31.0156C92.5527 30.9531 92.6152 30.9102 92.6934 30.8867C92.7715 30.8555 92.8496 30.832 92.9277 30.8164C93.0137 30.793 93.0918 30.7656 93.1621 30.7344C93.2402 30.6953 93.291 30.6367 93.3145 30.5586C93.3535 30.5898 93.4121 30.6055 93.4902 30.6055C93.623 30.6055 93.7441 30.5781 93.8535 30.5234C93.9707 30.4688 94.0957 30.4414 94.2285 30.4414C94.2598 30.4414 94.2871 30.4492 94.3105 30.4648C94.3418 30.4727 94.373 30.4766 94.4043 30.4766C94.4668 30.4766 94.498 30.457 94.498 30.418C94.5059 30.3789 94.5293 30.3438 94.5684 30.3125C95.0449 30.2266 95.5176 30.1484 95.9863 30.0781C96.4629 30.0078 96.9434 29.9727 97.4277 29.9727C97.498 29.9258 97.5762 29.9023 97.6621 29.9023C97.748 29.9023 97.8262 29.9258 97.8965 29.9727C98.0293 29.957 98.1621 29.9453 98.2949 29.9375C98.4277 29.9297 98.5605 29.9258 98.6934 29.9258C98.998 29.9258 99.3105 29.9453 99.6309 29.9844C99.9512 30.0234 100.268 30.0859 100.58 30.1719C100.9 30.25 101.205 30.3594 101.494 30.5C101.783 30.6328 102.053 30.793 102.303 30.9805C102.326 31.0508 102.357 31.1211 102.396 31.1914C102.436 31.2617 102.486 31.3164 102.549 31.3555C102.549 31.3711 102.545 31.3828 102.537 31.3906C102.537 31.3984 102.537 31.4102 102.537 31.4258C102.537 31.5117 102.561 31.5938 102.607 31.6719C102.662 31.75 102.689 31.8438 102.689 31.9531C102.689 32.0625 102.67 32.1719 102.631 32.2812C102.6 32.3906 102.588 32.5 102.596 32.6094C102.51 32.7344 102.436 32.8477 102.373 32.9492C102.318 33.0508 102.283 33.1797 102.268 33.3359C102.127 33.4766 102.002 33.6328 101.893 33.8047C101.783 33.9688 101.67 34.1328 101.553 34.2969C101.443 34.4531 101.318 34.5977 101.178 34.7305C101.037 34.8633 100.869 34.9688 100.674 35.0469C100.666 35.125 100.635 35.2109 100.58 35.3047H100.334C100.311 35.3672 100.271 35.4141 100.217 35.4453L100.053 35.5391C99.998 35.5703 99.9512 35.6094 99.9121 35.6562C99.8809 35.7031 99.8652 35.7695 99.8652 35.8555C99.8496 35.8477 99.8301 35.8438 99.8066 35.8438C99.7285 35.8438 99.6348 35.8828 99.5254 35.9609C99.4238 36.0391 99.3418 36.1016 99.2793 36.1484C99.1465 36.2422 99.0098 36.3281 98.8691 36.4062C98.7363 36.4844 98.6191 36.5938 98.5176 36.7344C98.2051 36.8672 97.9082 37.0234 97.627 37.2031C97.3457 37.375 97.041 37.5117 96.7129 37.6133C96.5879 37.7461 96.4395 37.8516 96.2676 37.9297C96.1035 38 95.9434 38.0781 95.7871 38.1641V38.1992C95.7871 38.2617 95.8105 38.3242 95.8574 38.3867C95.9043 38.4414 95.959 38.4922 96.0215 38.5391C96.084 38.5781 96.1504 38.6055 96.2207 38.6211C96.2988 38.6367 96.3652 38.6367 96.4199 38.6211C96.5762 38.7617 96.7559 38.875 96.959 38.9609C97.1621 39.0469 97.373 39.125 97.5918 39.1953C97.8105 39.2656 98.0254 39.3398 98.2363 39.418C98.4473 39.4961 98.6426 39.5938 98.8223 39.7109H99.1035C99.2832 39.8672 99.4941 39.9844 99.7363 40.0625C99.9863 40.1406 100.225 40.2109 100.451 40.2734C100.545 40.3594 100.662 40.4258 100.803 40.4727C100.951 40.5117 101.092 40.5312 101.225 40.5312H101.295C101.326 40.5312 101.354 40.5273 101.377 40.5195V40.543C101.377 40.582 101.389 40.6094 101.412 40.625C101.436 40.6328 101.459 40.6406 101.482 40.6484C101.514 40.6484 101.541 40.6562 101.564 40.6719C101.596 40.6797 101.619 40.6953 101.635 40.7188H101.752C101.916 40.7188 102.072 40.7539 102.221 40.8242C102.369 40.8867 102.525 40.918 102.689 40.918C102.76 40.918 102.814 40.9102 102.854 40.8945C102.9 40.9102 102.936 40.9414 102.959 40.9883C102.982 41.0352 103.014 41.0742 103.053 41.1055C103.107 41.0977 103.158 41.0898 103.205 41.082C103.252 41.082 103.299 41.082 103.346 41.082C103.518 41.082 103.678 41.1016 103.826 41.1406C103.975 41.1797 104.127 41.2383 104.283 41.3164C104.533 41.207 104.779 41.1172 105.021 41.0469C105.264 40.9766 105.521 40.9414 105.795 40.9414V40.9648C105.795 41.0586 105.818 41.1445 105.865 41.2227C105.92 41.3086 105.967 41.3945 106.006 41.4805ZM101.518 32.1289C101.518 32.0352 101.498 31.9609 101.459 31.9062C101.428 31.8516 101.385 31.8047 101.33 31.7656C101.275 31.7188 101.217 31.6758 101.154 31.6367C101.1 31.5977 101.049 31.5469 101.002 31.4844C100.799 31.4219 100.6 31.3516 100.404 31.2734C100.209 31.1953 100.01 31.1289 99.8066 31.0742C99.7051 31.0508 99.6035 31.0312 99.502 31.0156C99.4004 30.9922 99.2988 30.9805 99.1973 30.9805H98.9395C98.8926 30.9727 98.8418 30.9648 98.7871 30.957C98.7402 30.9414 98.6934 30.9297 98.6465 30.9219C98.5371 30.9062 98.4277 30.8945 98.3184 30.8867C98.2168 30.8789 98.1113 30.875 98.002 30.875C97.7988 30.875 97.5957 30.8828 97.3926 30.8984L96.7832 30.9453C96.6973 30.9531 96.6074 30.957 96.5137 30.957C96.4199 30.957 96.334 30.9648 96.2559 30.9805C96.2168 30.9883 96.1621 31.0078 96.0918 31.0391C96.0215 31.0625 95.9473 31.0898 95.8691 31.1211C95.791 31.1445 95.7129 31.1719 95.6348 31.2031C95.5645 31.2344 95.502 31.2578 95.4473 31.2734C95.4551 31.3281 95.459 31.3828 95.459 31.4375V31.5898C95.459 31.707 95.4551 31.8242 95.4473 31.9414C95.4395 32.0586 95.4238 32.1758 95.4004 32.293C95.3926 32.3398 95.3809 32.3867 95.3652 32.4336C95.3496 32.4805 95.3379 32.5273 95.3301 32.5742C95.3145 32.6445 95.3066 32.7227 95.3066 32.8086V33.0312C95.291 33.2109 95.2793 33.3867 95.2715 33.5586C95.2637 33.7305 95.252 33.9062 95.2363 34.0859C95.1895 34.6016 95.1387 35.1133 95.084 35.6211C95.0371 36.1289 95.0059 36.6406 94.9902 37.1562C95.248 37.1016 95.4941 37.0195 95.7285 36.9102C95.9629 36.8008 96.1934 36.6836 96.4199 36.5586C96.6465 36.4258 96.873 36.2969 97.0996 36.1719C97.3262 36.0469 97.5645 35.9414 97.8145 35.8555C97.877 35.7695 97.9512 35.6992 98.0371 35.6445C98.1309 35.5898 98.209 35.5195 98.2715 35.4336C98.3496 35.4336 98.4082 35.418 98.4473 35.3867C98.4863 35.3477 98.5371 35.3203 98.5996 35.3047C98.9746 34.9766 99.3574 34.668 99.748 34.3789C100.139 34.0898 100.514 33.7812 100.873 33.4531C100.904 33.3438 100.955 33.2383 101.025 33.1367C101.104 33.0273 101.178 32.918 101.248 32.8086C101.318 32.6992 101.381 32.5898 101.436 32.4805C101.49 32.3711 101.518 32.2539 101.518 32.1289Z" fill="#FFDC62"/>
<path d="M2.51099 21V9.96433H2.67239L4.2662 12.5467V21H2.51099ZM2.51099 8.00737V6.87758H4.02411L11.4888 18.8413V21H10.6213L2.51099 8.00737ZM9.7336 14.2616V6.87758H11.4888V16.844H11.3274L9.7336 14.2616ZM22.4196 17.0659V10.4284C22.4196 9.71551 22.7222 8.98921 23.3274 8.24947C24.1344 7.28107 25.1566 6.79015 26.394 6.7767V8.53192C25.5736 8.53192 24.9347 8.94886 24.4774 9.78276C24.2891 10.1459 24.195 10.4687 24.195 10.7512V17.0659C24.195 17.9132 24.6119 18.5723 25.4458 19.043C25.7955 19.2448 26.1049 19.3457 26.3739 19.3457V21.1009C25.6072 21.1009 24.8406 20.8252 24.0739 20.2737C22.9845 19.4667 22.433 18.3974 22.4196 17.0659ZM27.4835 21.1009V19.3457C27.9542 19.3457 28.4317 19.1372 28.9159 18.7202C29.427 18.2629 29.6893 17.7115 29.7027 17.0659V10.7512C29.7027 10.2266 29.4875 9.72224 29.0571 9.23804C28.6133 8.78074 28.0887 8.54537 27.4835 8.53192V6.7767C28.8419 6.7767 29.9314 7.36177 30.7518 8.53192C31.2226 9.20441 31.4579 9.83656 31.4579 10.4284V17.0659C31.4579 18.5588 30.7922 19.7021 29.4606 20.4956C28.7612 20.8991 28.1022 21.1009 27.4835 21.1009ZM56.4062 20.9798V6.87758H63.7499V8.61262H58.1614V13.0914H61.8534V14.8467H58.1614V20.9798H56.4062ZM74.3376 21L77.0209 9.07664H77.3437L78.0296 12.2037L76.0727 21H74.3376ZM77.5656 18.7404L77.9489 17.0255H80.1077L77.8682 6.89775H79.6235L82.8111 21H81.0559L80.5515 18.7404H77.5656ZM93.4594 21V6.87758H95.2146V21H93.4594ZM96.2234 14.6853V12.9704H98.14C99.4715 12.9569 100.151 12.2172 100.178 10.7512C100.164 9.32546 99.4782 8.59917 98.1198 8.57227H96.2234V6.87758H98.4023C98.483 6.87758 98.5637 6.87758 98.6444 6.87758C100.864 6.99862 101.973 8.28982 101.973 10.7512C101.973 11.4909 101.886 12.1298 101.711 12.6678C101.267 13.9993 100.164 14.6718 98.4023 14.6853H96.2234Z" fill="white"/>
</svg>
